<svg width="580" height="633" viewBox="0 0 580 633" fill="none" xmlns="http://www.w3.org/2000/svg">
<g opacity="0.4">
<g opacity="0.4">
<path d="M497.364 10.5483H409.947V544.061H497.364V10.5483Z" fill="#EBEBEB"/>
<path d="M499.413 0H409.948V10.5485H499.413V0Z" fill="#C7C7C7"/>
<path d="M489.51 26.3713H480.632V544.061H489.51V26.3713Z" fill="white"/>
<path d="M473.802 26.3713H464.924V544.061H473.802V26.3713Z" fill="white"/>
<path d="M458.094 26.3713H449.216V544.061H458.094V26.3713Z" fill="white"/>
<path d="M442.387 26.3713H433.509V544.061H442.387V26.3713Z" fill="white"/>
<path d="M426.679 26.3713H417.801V544.061H426.679V26.3713Z" fill="white"/>
<path d="M489.51 39.7598H480.632V60.654H489.51V39.7598Z" fill="#EBEBEB"/>
<path d="M473.802 39.7598H464.924V60.654H473.802V39.7598Z" fill="#EBEBEB"/>
<path d="M458.094 39.7598H449.216V60.654H458.094V39.7598Z" fill="#EBEBEB"/>
<path d="M442.387 39.7598H433.509V60.654H442.387V39.7598Z" fill="#EBEBEB"/>
<path d="M426.679 39.76H417.801V60.6542H426.679V39.76Z" fill="#EBEBEB"/>
<path d="M489.51 73.8398H480.632V94.7341H489.51V73.8398Z" fill="#EBEBEB"/>
<path d="M473.802 73.8398H464.924V94.7341H473.802V73.8398Z" fill="#EBEBEB"/>
<path d="M458.094 73.8398H449.216V94.7341H458.094V73.8398Z" fill="#EBEBEB"/>
<path d="M442.387 73.8398H433.509V94.7341H442.387V73.8398Z" fill="#EBEBEB"/>
<path d="M426.679 73.8401H417.801V94.7343H426.679V73.8401Z" fill="#EBEBEB"/>
<path d="M489.51 107.92H480.632V128.814H489.51V107.92Z" fill="#EBEBEB"/>
<path d="M473.802 107.92H464.924V128.814H473.802V107.92Z" fill="#EBEBEB"/>
<path d="M458.094 107.92H449.216V128.814H458.094V107.92Z" fill="#EBEBEB"/>
<path d="M442.387 107.92H433.509V128.814H442.387V107.92Z" fill="#EBEBEB"/>
<path d="M426.679 107.92H417.801V128.814H426.679V107.92Z" fill="#EBEBEB"/>
<path d="M489.51 141.999H480.632V162.893H489.51V141.999Z" fill="#EBEBEB"/>
<path d="M473.802 141.999H464.924V162.893H473.802V141.999Z" fill="#EBEBEB"/>
<path d="M458.094 141.999H449.216V162.893H458.094V141.999Z" fill="#EBEBEB"/>
<path d="M442.387 141.999H433.509V162.893H442.387V141.999Z" fill="#EBEBEB"/>
<path d="M426.679 142H417.801V162.894H426.679V142Z" fill="#EBEBEB"/>
<path d="M489.51 176.08H480.632V196.974H489.51V176.08Z" fill="#EBEBEB"/>
<path d="M473.802 176.08H464.924V196.974H473.802V176.08Z" fill="#EBEBEB"/>
<path d="M458.094 176.08H449.216V196.974H458.094V176.08Z" fill="#EBEBEB"/>
<path d="M442.387 176.08H433.509V196.974H442.387V176.08Z" fill="#EBEBEB"/>
<path d="M426.679 176.08H417.801V196.974H426.679V176.08Z" fill="#EBEBEB"/>
<path d="M489.51 210.16H480.632V231.054H489.51V210.16Z" fill="#EBEBEB"/>
<path d="M473.802 210.16H464.924V231.054H473.802V210.16Z" fill="#EBEBEB"/>
<path d="M458.094 210.16H449.216V231.054H458.094V210.16Z" fill="#EBEBEB"/>
<path d="M442.387 210.16H433.509V231.054H442.387V210.16Z" fill="#EBEBEB"/>
<path d="M426.679 210.16H417.801V231.054H426.679V210.16Z" fill="#EBEBEB"/>
<path d="M489.51 244.239H480.632V265.134H489.51V244.239Z" fill="#EBEBEB"/>
<path d="M473.802 244.239H464.924V265.134H473.802V244.239Z" fill="#EBEBEB"/>
<path d="M458.094 244.239H449.216V265.134H458.094V244.239Z" fill="#EBEBEB"/>
<path d="M442.387 244.239H433.509V265.134H442.387V244.239Z" fill="#EBEBEB"/>
<path d="M426.679 244.239H417.801V265.134H426.679V244.239Z" fill="#EBEBEB"/>
<path d="M489.51 278.319H480.632V299.214H489.51V278.319Z" fill="#EBEBEB"/>
<path d="M473.802 278.319H464.924V299.214H473.802V278.319Z" fill="#EBEBEB"/>
<path d="M458.094 278.319H449.216V299.214H458.094V278.319Z" fill="#EBEBEB"/>
<path d="M442.387 278.319H433.509V299.214H442.387V278.319Z" fill="#EBEBEB"/>
<path d="M426.679 278.319H417.801V299.214H426.679V278.319Z" fill="#EBEBEB"/>
<path d="M489.51 312.399H480.632V333.293H489.51V312.399Z" fill="#EBEBEB"/>
<path d="M473.802 312.399H464.924V333.293H473.802V312.399Z" fill="#EBEBEB"/>
<path d="M458.094 312.399H449.216V333.293H458.094V312.399Z" fill="#EBEBEB"/>
<path d="M442.387 312.399H433.509V333.293H442.387V312.399Z" fill="#EBEBEB"/>
<path d="M426.679 312.399H417.801V333.293H426.679V312.399Z" fill="#EBEBEB"/>
<path d="M489.51 346.479H480.632V367.373H489.51V346.479Z" fill="#EBEBEB"/>
<path d="M473.802 346.479H464.924V367.373H473.802V346.479Z" fill="#EBEBEB"/>
<path d="M458.094 346.479H449.216V367.373H458.094V346.479Z" fill="#EBEBEB"/>
<path d="M442.387 346.479H433.509V367.373H442.387V346.479Z" fill="#EBEBEB"/>
<path d="M426.679 346.479H417.801V367.373H426.679V346.479Z" fill="#EBEBEB"/>
<path d="M489.51 380.559H480.632V401.453H489.51V380.559Z" fill="#EBEBEB"/>
<path d="M473.802 380.559H464.924V401.453H473.802V380.559Z" fill="#EBEBEB"/>
<path d="M458.094 380.559H449.216V401.453H458.094V380.559Z" fill="#EBEBEB"/>
<path d="M442.387 380.559H433.509V401.453H442.387V380.559Z" fill="#EBEBEB"/>
<path d="M426.679 380.559H417.801V401.453H426.679V380.559Z" fill="#EBEBEB"/>
<path d="M489.51 414.639H480.632V435.533H489.51V414.639Z" fill="#EBEBEB"/>
<path d="M473.802 414.639H464.924V435.533H473.802V414.639Z" fill="#EBEBEB"/>
<path d="M458.094 414.639H449.216V435.533H458.094V414.639Z" fill="#EBEBEB"/>
<path d="M442.387 414.639H433.509V435.533H442.387V414.639Z" fill="#EBEBEB"/>
<path d="M426.679 414.639H417.801V435.533H426.679V414.639Z" fill="#EBEBEB"/>
<path d="M489.51 448.719H480.632V469.613H489.51V448.719Z" fill="#EBEBEB"/>
<path d="M473.802 448.719H464.924V469.613H473.802V448.719Z" fill="#EBEBEB"/>
<path d="M458.094 448.719H449.216V469.613H458.094V448.719Z" fill="#EBEBEB"/>
<path d="M442.387 448.719H433.509V469.613H442.387V448.719Z" fill="#EBEBEB"/>
<path d="M426.679 448.719H417.801V469.613H426.679V448.719Z" fill="#EBEBEB"/>
<path d="M489.51 482.798H480.632V544.061H489.51V482.798Z" fill="#EBEBEB"/>
<path d="M473.802 482.798H464.924V544.061H473.802V482.798Z" fill="#EBEBEB"/>
<path d="M458.094 482.798H449.216V544.061H458.094V482.798Z" fill="#EBEBEB"/>
<path d="M442.387 482.798H433.509V544.061H442.387V482.798Z" fill="#EBEBEB"/>
<path d="M426.679 482.798H417.801V544.061H426.679V482.798Z" fill="#EBEBEB"/>
<path d="M409.947 10.5483H353.775V544.061H409.947V10.5483Z" fill="#DBDBDB"/>
<path d="M409.948 0.000244141H351.385V10.5488H409.948V0.000244141Z" fill="#C7C7C7"/>
<path d="M402.094 26.3713H393.215V544.061H402.094V26.3713Z" fill="#C7C7C7"/>
<path d="M386.386 26.3713H377.508V544.061H386.386V26.3713Z" fill="#C7C7C7"/>
<path d="M370.679 26.3713H361.8V544.061H370.679V26.3713Z" fill="#C7C7C7"/>
<path d="M402.094 39.7598H393.215V60.654H402.094V39.7598Z" fill="#DBDBDB"/>
<path d="M386.386 39.7598H377.508V60.654H386.386V39.7598Z" fill="#DBDBDB"/>
<path d="M370.679 39.76H361.8V60.6542H370.679V39.76Z" fill="#DBDBDB"/>
<path d="M402.094 73.8398H393.215V94.7341H402.094V73.8398Z" fill="#DBDBDB"/>
<path d="M386.386 73.8398H377.508V94.7341H386.386V73.8398Z" fill="#DBDBDB"/>
<path d="M370.679 73.8401H361.8V94.7343H370.679V73.8401Z" fill="#DBDBDB"/>
<path d="M402.094 107.92H393.215V128.814H402.094V107.92Z" fill="#DBDBDB"/>
<path d="M386.386 107.92H377.508V128.814H386.386V107.92Z" fill="#DBDBDB"/>
<path d="M370.679 107.92H361.8V128.814H370.679V107.92Z" fill="#DBDBDB"/>
<path d="M402.094 141.999H393.215V162.893H402.094V141.999Z" fill="#DBDBDB"/>
<path d="M386.386 141.999H377.508V162.893H386.386V141.999Z" fill="#DBDBDB"/>
<path d="M370.679 142H361.8V162.894H370.679V142Z" fill="#DBDBDB"/>
<path d="M402.094 176.08H393.215V196.974H402.094V176.08Z" fill="#DBDBDB"/>
<path d="M386.386 176.08H377.508V196.974H386.386V176.08Z" fill="#DBDBDB"/>
<path d="M370.679 176.08H361.8V196.974H370.679V176.08Z" fill="#DBDBDB"/>
<path d="M402.094 210.16H393.215V231.054H402.094V210.16Z" fill="#DBDBDB"/>
<path d="M386.386 210.16H377.508V231.054H386.386V210.16Z" fill="#DBDBDB"/>
<path d="M370.679 210.16H361.8V231.054H370.679V210.16Z" fill="#DBDBDB"/>
<path d="M402.094 244.239H393.215V265.134H402.094V244.239Z" fill="#DBDBDB"/>
<path d="M386.386 244.239H377.508V265.134H386.386V244.239Z" fill="#DBDBDB"/>
<path d="M370.679 244.239H361.8V265.134H370.679V244.239Z" fill="#DBDBDB"/>
<path d="M402.094 278.319H393.215V299.214H402.094V278.319Z" fill="#DBDBDB"/>
<path d="M386.386 278.319H377.508V299.214H386.386V278.319Z" fill="#DBDBDB"/>
<path d="M370.679 278.319H361.8V299.214H370.679V278.319Z" fill="#DBDBDB"/>
<path d="M402.094 312.399H393.215V333.293H402.094V312.399Z" fill="#DBDBDB"/>
<path d="M386.386 312.399H377.508V333.293H386.386V312.399Z" fill="#DBDBDB"/>
<path d="M370.679 312.399H361.8V333.293H370.679V312.399Z" fill="#DBDBDB"/>
<path d="M402.094 346.479H393.215V367.373H402.094V346.479Z" fill="#DBDBDB"/>
<path d="M386.386 346.479H377.508V367.373H386.386V346.479Z" fill="#DBDBDB"/>
<path d="M370.679 346.479H361.8V367.373H370.679V346.479Z" fill="#DBDBDB"/>
<path d="M402.094 380.559H393.215V401.453H402.094V380.559Z" fill="#DBDBDB"/>
<path d="M386.386 380.559H377.508V401.453H386.386V380.559Z" fill="#DBDBDB"/>
<path d="M370.679 380.559H361.8V401.453H370.679V380.559Z" fill="#DBDBDB"/>
<path d="M402.094 414.639H393.215V435.533H402.094V414.639Z" fill="#DBDBDB"/>
<path d="M386.386 414.639H377.508V435.533H386.386V414.639Z" fill="#DBDBDB"/>
<path d="M370.679 414.639H361.8V435.533H370.679V414.639Z" fill="#DBDBDB"/>
<path d="M402.094 448.719H393.215V469.613H402.094V448.719Z" fill="#DBDBDB"/>
<path d="M386.386 448.719H377.508V469.613H386.386V448.719Z" fill="#DBDBDB"/>
<path d="M370.679 448.719H361.8V469.613H370.679V448.719Z" fill="#DBDBDB"/>
<path d="M402.094 482.798H393.215V544.061H402.094V482.798Z" fill="#DBDBDB"/>
<path d="M386.386 482.798H377.508V544.061H386.386V482.798Z" fill="#DBDBDB"/>
<path d="M370.679 482.798H361.8V544.061H370.679V482.798Z" fill="#DBDBDB"/>
</g>
<g opacity="0.6">
<path d="M580 348.711H495.486V550.148H580V348.711Z" fill="#C7C7C7"/>
<path d="M566.853 366.157H551.828V378.531H566.853V366.157Z" fill="#DBDBDB"/>
<path d="M566.853 392.528H551.828V404.902H566.853V392.528Z" fill="#DBDBDB"/>
<path d="M566.853 418.899H551.828V431.274H566.853V418.899Z" fill="#DBDBDB"/>
<path d="M566.853 445.271H551.828V457.645H566.853V445.271Z" fill="#DBDBDB"/>
<path d="M566.853 471.643H551.828V484.017H566.853V471.643Z" fill="#DBDBDB"/>
<path d="M566.853 498.014H551.828V510.388H566.853V498.014Z" fill="#DBDBDB"/>
<path d="M566.853 524.385H551.828V536.759H566.853V524.385Z" fill="#DBDBDB"/>
<path d="M545.341 366.157H530.316V378.531H545.341V366.157Z" fill="#DBDBDB"/>
<path d="M545.341 392.528H530.316V404.902H545.341V392.528Z" fill="#DBDBDB"/>
<path d="M545.341 418.899H530.316V431.274H545.341V418.899Z" fill="#DBDBDB"/>
<path d="M545.341 445.271H530.316V457.645H545.341V445.271Z" fill="#DBDBDB"/>
<path d="M545.341 471.643H530.316V484.017H545.341V471.643Z" fill="#DBDBDB"/>
<path d="M545.341 498.014H530.316V510.388H545.341V498.014Z" fill="#DBDBDB"/>
<path d="M545.341 524.385H530.316V536.759H545.341V524.385Z" fill="#DBDBDB"/>
<path d="M523.829 366.157H508.804V378.531H523.829V366.157Z" fill="#DBDBDB"/>
<path d="M523.828 392.528H508.803V404.902H523.828V392.528Z" fill="#DBDBDB"/>
<path d="M523.828 418.899H508.803V431.274H523.828V418.899Z" fill="#DBDBDB"/>
<path d="M523.828 445.271H508.803V457.645H523.828V445.271Z" fill="#DBDBDB"/>
<path d="M523.828 471.643H508.803V484.017H523.828V471.643Z" fill="#DBDBDB"/>
<path d="M523.828 498.014H508.803V510.388H523.828V498.014Z" fill="#DBDBDB"/>
<path d="M523.828 524.385H508.803V536.759H523.828V524.385Z" fill="#DBDBDB"/>
<path d="M551.658 327.614H495.486V348.711H551.658V327.614Z" fill="#DBDBDB"/>
<path d="M531.17 314.631H495.486V327.614H531.17V314.631Z" fill="#EBEBEB"/>
<path d="M495.486 348.711H436.241V550.148H495.486V348.711Z" fill="#A6A6A6"/>
<path d="M454.509 522.356H442.387V534.73H454.509V522.356Z" fill="#C7C7C7"/>
<path d="M454.509 495.984H442.387V508.359H454.509V495.984Z" fill="#C7C7C7"/>
<path d="M454.509 469.613H442.387V481.988H454.509V469.613Z" fill="#C7C7C7"/>
<path d="M454.509 443.242H442.387V455.616H454.509V443.242Z" fill="#C7C7C7"/>
<path d="M454.509 416.871H442.387V429.245H454.509V416.871Z" fill="#C7C7C7"/>
<path d="M454.509 390.499H442.387V402.873H454.509V390.499Z" fill="#C7C7C7"/>
<path d="M454.509 364.128H442.387V376.502H454.509V364.128Z" fill="#C7C7C7"/>
<path d="M471.924 522.356H459.802V534.73H471.924V522.356Z" fill="#C7C7C7"/>
<path d="M471.924 495.984H459.802V508.359H471.924V495.984Z" fill="#C7C7C7"/>
<path d="M471.924 469.613H459.802V481.988H471.924V469.613Z" fill="#C7C7C7"/>
<path d="M471.924 443.242H459.802V455.616H471.924V443.242Z" fill="#C7C7C7"/>
<path d="M471.924 416.871H459.802V429.245H471.924V416.871Z" fill="#C7C7C7"/>
<path d="M471.924 390.499H459.802V402.873H471.924V390.499Z" fill="#C7C7C7"/>
<path d="M471.924 364.128H459.802V376.502H471.924V364.128Z" fill="#C7C7C7"/>
<path d="M489.339 522.356H477.217V534.73H489.339V522.356Z" fill="#C7C7C7"/>
<path d="M489.339 495.984H477.217V508.359H489.339V495.984Z" fill="#C7C7C7"/>
<path d="M489.339 469.613H477.217V481.988H489.339V469.613Z" fill="#C7C7C7"/>
<path d="M489.339 443.242H477.217V455.616H489.339V443.242Z" fill="#C7C7C7"/>
<path d="M489.339 416.871H477.217V429.245H489.339V416.871Z" fill="#C7C7C7"/>
<path d="M489.339 390.499H477.217V402.873H489.339V390.499Z" fill="#C7C7C7"/>
<path d="M489.339 364.128H477.217V376.502H489.339V364.128Z" fill="#C7C7C7"/>
<path d="M495.657 327.614H445.29V348.711H495.657V327.614Z" fill="#C7C7C7"/>
<path d="M495.657 314.631H468.339V327.614H495.657V314.631Z" fill="#DBDBDB"/>
</g>
<g opacity="0.3">
<path d="M176.04 113.194H81.282V540.207H176.04V113.194Z" fill="#EBEBEB"/>
<path d="M162.552 84.9968H81.282V113.397H162.552V84.9968Z" fill="#C7C7C7"/>
<path d="M165.625 128.002H91.6969V447.096H165.625V128.002Z" fill="#DBDBDB"/>
<path d="M165.625 158.431H91.6969V165.936H165.625V158.431Z" fill="white"/>
<path d="M165.625 189.67H91.6969V197.176H165.625V189.67Z" fill="white"/>
<path d="M165.625 220.91H91.6969V228.416H165.625V220.91Z" fill="white"/>
<path d="M165.625 252.15H91.6969V259.656H165.625V252.15Z" fill="white"/>
<path d="M165.625 283.391H91.6969V290.896H165.625V283.391Z" fill="white"/>
<path d="M165.625 314.63H91.6969V322.136H165.625V314.63Z" fill="white"/>
<path d="M165.625 345.87H91.6969V353.376H165.625V345.87Z" fill="white"/>
<path d="M165.625 377.11H91.6969V384.616H165.625V377.11Z" fill="white"/>
<path d="M165.625 408.35H91.6969V415.855H165.625V408.35Z" fill="white"/>
<path d="M165.625 439.589H91.6969V447.095H165.625V439.589Z" fill="white"/>
<path d="M81.282 113.194H21.8661V540.207H81.282V113.194Z" fill="#DBDBDB"/>
<path d="M81.1113 84.9968H30.7444V113.397H81.1113V84.9968Z" fill="#A6A6A6"/>
<path d="M72.9159 128.002H27.3296V447.096H72.9159V128.002Z" fill="#C7C7C7"/>
<path d="M72.9159 158.431H27.3296V165.936H72.9159V158.431Z" fill="white"/>
<path d="M72.9159 189.67H27.3296V197.176H72.9159V189.67Z" fill="white"/>
<path d="M72.9159 220.91H27.3296V228.416H72.9159V220.91Z" fill="white"/>
<path d="M72.9159 252.15H27.3296V259.656H72.9159V252.15Z" fill="white"/>
<path d="M72.9159 283.391H27.3296V290.896H72.9159V283.391Z" fill="white"/>
<path d="M72.9159 314.63H27.3296V322.136H72.9159V314.63Z" fill="white"/>
<path d="M72.9159 345.87H27.3296V353.376H72.9159V345.87Z" fill="white"/>
<path d="M72.9159 377.11H27.3296V384.616H72.9159V377.11Z" fill="white"/>
<path d="M72.9159 408.35H27.3296V415.855H72.9159V408.35Z" fill="white"/>
<path d="M72.9159 439.589H27.3296V447.095H72.9159V439.589Z" fill="white"/>
</g>
<path d="M354.97 476.509C354.97 460.687 344.043 422.752 330.726 422.752C317.238 422.752 306.482 460.484 306.482 476.509C306.482 492.535 317.409 505.315 330.726 505.315C344.043 505.315 354.97 492.332 354.97 476.509Z" fill="#E4E4E4"/>
<path d="M348.995 476.51C348.995 460.687 338.068 422.753 324.751 422.753C311.433 422.753 300.506 460.484 300.506 476.51C300.506 492.536 311.433 505.316 324.751 505.316C338.068 505.316 348.995 492.333 348.995 476.51Z" fill="#F1F1F1"/>
<path d="M325.434 541.018C325.092 541.018 324.751 540.612 324.751 540.207V459.875C324.751 459.47 325.092 459.064 325.434 459.064C325.775 459.064 326.117 459.47 326.117 459.875V540.207C326.117 540.612 325.775 541.018 325.434 541.018Z" fill="#CACACA"/>
<path d="M325.434 472.859C325.092 472.859 324.751 472.453 324.751 472.047C324.751 471.844 324.751 471.641 324.921 471.439L334.824 459.673C335.166 459.267 335.678 459.267 335.849 459.673C336.19 460.079 336.19 460.687 335.849 460.89L325.946 472.656C325.775 472.656 325.604 472.859 325.434 472.859Z" fill="#CACACA"/>
<path d="M54.6354 476.509C54.6354 460.687 43.7084 422.752 30.391 422.752C17.0737 422.752 6.14661 460.484 6.14661 476.509C6.14661 492.535 17.0737 505.315 30.391 505.315C43.7084 505.315 54.6354 492.332 54.6354 476.509Z" fill="#E4E4E4"/>
<path d="M48.4888 476.51C48.4888 460.687 37.5618 422.753 24.2444 422.753C10.9271 422.753 0 460.484 0 476.51C0 492.536 10.9271 505.316 24.2444 505.316C37.5618 505.316 48.4888 492.333 48.4888 476.51Z" fill="#F1F1F1"/>
<path d="M25.0982 541.018C24.7568 541.018 24.4153 540.612 24.4153 540.207V459.875C24.4153 459.47 24.7568 459.064 25.0982 459.064C25.4397 459.064 25.7812 459.47 25.7812 459.875V540.207C25.7812 540.612 25.4397 541.018 25.0982 541.018Z" fill="#CACACA"/>
<path d="M25.0982 472.859C24.7568 472.859 24.4153 472.453 24.4153 472.047C24.4153 471.844 24.4153 471.641 24.586 471.439L34.4887 459.673C34.8301 459.267 35.3423 459.267 35.5131 459.673C35.8545 460.079 35.8545 460.687 35.5131 460.89L25.6104 472.656C25.4397 472.656 25.269 472.859 25.0982 472.859Z" fill="#CACACA"/>
</g>
<g opacity="0.6">
<path d="M398.658 446.458H298.436V548.719H398.658V446.458Z" fill="#DBDBDB"/>
<path d="M298.576 386.619H198.353V548.719H298.576V386.619Z" fill="#EBEBEB"/>
<path d="M198.353 386.619H160V548.719H198.353V386.619Z" fill="#DBDBDB"/>
<path d="M286.678 399.963H266.941V408.532H286.678V399.963Z" fill="white"/>
<path d="M286.678 418.224H266.941V426.793H286.678V418.224Z" fill="white"/>
<path d="M286.678 436.485H266.941V445.054H286.678V436.485Z" fill="white"/>
<path d="M286.678 454.746H266.941V463.315H286.678V454.746Z" fill="white"/>
<path d="M286.678 473.007H266.941V481.575H286.678V473.007Z" fill="white"/>
<path d="M286.678 491.268H266.941V499.836H286.678V491.268Z" fill="white"/>
<path d="M286.678 509.528H266.941V518.097H286.678V509.528Z" fill="white"/>
<path d="M258.263 399.963H238.526V408.532H258.263V399.963Z" fill="white"/>
<path d="M258.263 418.224H238.526V426.793H258.263V418.224Z" fill="white"/>
<path d="M258.263 436.485H238.526V445.054H258.263V436.485Z" fill="white"/>
<path d="M258.263 454.746H238.526V463.315H258.263V454.746Z" fill="white"/>
<path d="M258.263 473.007H238.526V481.575H258.263V473.007Z" fill="white"/>
<path d="M258.263 491.268H238.526V499.836H258.263V491.268Z" fill="white"/>
<path d="M258.263 509.528H238.526V518.097H258.263V509.528Z" fill="white"/>
<path d="M229.988 399.963H210.251V408.532H229.988V399.963Z" fill="white"/>
<path d="M229.988 418.224H210.251V426.793H229.988V418.224Z" fill="white"/>
<path d="M229.988 436.485H210.251V445.054H229.988V436.485Z" fill="white"/>
<path d="M229.988 454.746H210.251V463.315H229.988V454.746Z" fill="white"/>
<path d="M229.988 473.007H210.251V481.575H229.988V473.007Z" fill="white"/>
<path d="M229.988 491.268H210.251V499.836H229.988V491.268Z" fill="white"/>
<path d="M229.988 509.528H210.251V518.097H229.988V509.528Z" fill="white"/>
<path d="M386.76 454.746H367.023V463.314H386.76V454.746Z" fill="#C7C7C7"/>
<path d="M386.76 473.006H367.023V481.575H386.76V473.006Z" fill="#C7C7C7"/>
<path d="M386.76 491.267H367.023V499.836H386.76V491.267Z" fill="#C7C7C7"/>
<path d="M386.76 509.528H367.023V518.097H386.76V509.528Z" fill="#C7C7C7"/>
<path d="M358.485 454.746H338.749V463.314H358.485V454.746Z" fill="#C7C7C7"/>
<path d="M358.485 473.006H338.749V481.575H358.485V473.006Z" fill="#C7C7C7"/>
<path d="M358.485 491.267H338.749V499.836H358.485V491.267Z" fill="#C7C7C7"/>
<path d="M358.485 509.528H338.749V518.097H358.485V509.528Z" fill="#C7C7C7"/>
<path d="M330.07 454.746H310.333V463.314H330.07V454.746Z" fill="#C7C7C7"/>
<path d="M330.07 473.006H310.333V481.575H330.07V473.006Z" fill="#C7C7C7"/>
<path d="M330.07 491.267H310.333V499.836H330.07V491.267Z" fill="#C7C7C7"/>
<path d="M330.07 509.528H310.333V518.097H330.07V509.528Z" fill="#C7C7C7"/>
<path d="M188.975 399.963H169.238V408.532H188.975V399.963Z" fill="#C7C7C7"/>
<path d="M188.975 418.224H169.238V426.793H188.975V418.224Z" fill="#C7C7C7"/>
<path d="M188.975 436.485H169.238V445.054H188.975V436.485Z" fill="#C7C7C7"/>
<path d="M188.975 454.746H169.238V463.315H188.975V454.746Z" fill="#C7C7C7"/>
<path d="M188.975 473.007H169.238V481.575H188.975V473.007Z" fill="#C7C7C7"/>
<path d="M188.975 491.268H169.238V499.836H188.975V491.268Z" fill="#C7C7C7"/>
<path d="M188.975 509.528H169.238V518.097H188.975V509.528Z" fill="#C7C7C7"/>
<path d="M246.505 339H243.005V386.619H246.505V339Z" fill="#C7C7C7"/>
<path d="M250.144 339H246.645V386.619H250.144V339Z" fill="#DBDBDB"/>
<path d="M198.213 339H194.714V386.619H198.213V339Z" fill="#C7C7C7"/>
<path d="M201.853 339H198.353V386.619H201.853V339Z" fill="#DBDBDB"/>
<path d="M294.936 339H291.437V386.619H294.936V339Z" fill="#C7C7C7"/>
<path d="M298.435 339H294.936V386.619H298.435V339Z" fill="#DBDBDB"/>
<path d="M346.727 398.699H343.228V446.318H346.727V398.699Z" fill="#C7C7C7"/>
<path d="M350.367 398.699H346.867V446.318H350.367V398.699Z" fill="#DBDBDB"/>
<path d="M395.018 398.699H391.519V446.318H395.018V398.699Z" fill="#C7C7C7"/>
<path d="M398.658 398.699H395.158V446.318H398.658V398.699Z" fill="#DBDBDB"/>
<path d="M163.499 339H160V386.619H163.499V339Z" fill="#C7C7C7"/>
<path d="M166.999 339H163.499V386.619H166.999V339Z" fill="#DBDBDB"/>
<path d="M433.085 265.568L435.325 263.448L413.717 240.455L411.477 242.575L433.085 265.568Z" fill="#455A64"/>
<path d="M434.072 263.99H411.956V267.081H434.072V263.99Z" fill="#455A64"/>
<path d="M434.072 239.97H411.956V243.06H434.072V239.97Z" fill="#455A64"/>
<path d="M413.616 265.564L435.218 242.565L432.977 240.446L411.375 263.445L413.616 265.564Z" fill="#455A64"/>
<path d="M433.072 289.557L435.312 287.437L413.704 264.444L411.464 266.564L433.072 289.557Z" fill="#455A64"/>
<path d="M434.072 288.01H411.956V291.101H434.072V288.01Z" fill="#455A64"/>
<path d="M434.072 263.99H411.956V267.081H434.072V263.99Z" fill="#455A64"/>
<path d="M413.603 289.554L435.205 266.555L432.964 264.435L411.362 287.434L413.603 289.554Z" fill="#455A64"/>
<path d="M433.059 313.546L435.299 311.426L413.691 288.433L411.451 290.553L433.059 313.546Z" fill="#455A64"/>
<path d="M434.072 311.89H411.956V314.98H434.072V311.89Z" fill="#455A64"/>
<path d="M434.072 288.01H411.956V291.101H434.072V288.01Z" fill="#455A64"/>
<path d="M413.589 313.543L435.191 290.543L432.95 288.424L411.348 311.423L413.589 313.543Z" fill="#455A64"/>
<path d="M433.046 337.535L435.286 335.415L413.678 312.422L411.438 314.542L433.046 337.535Z" fill="#455A64"/>
<path d="M434.072 335.91H411.956V339H434.072V335.91Z" fill="#455A64"/>
<path d="M434.072 311.89H411.956V314.98H434.072V311.89Z" fill="#455A64"/>
<path d="M413.678 337.628L435.28 314.629L433.039 312.509L411.437 335.509L413.678 337.628Z" fill="#455A64"/>
<path d="M433.033 361.524L435.273 359.403L413.665 336.41L411.425 338.531L433.033 361.524Z" fill="#455A64"/>
<path d="M434.072 359.93H411.956V363.02H434.072V359.93Z" fill="#455A64"/>
<path d="M434.072 335.91H411.956V339H434.072V335.91Z" fill="#455A64"/>
<path d="M413.664 361.616L435.266 338.617L433.025 336.498L411.423 359.497L413.664 361.616Z" fill="#455A64"/>
<path d="M433.117 385.626L435.357 383.505L413.749 360.512L411.509 362.633L433.117 385.626Z" fill="#455A64"/>
<path d="M434.072 383.95H411.956V387.04H434.072V383.95Z" fill="#455A64"/>
<path d="M434.072 359.93H411.956V363.02H434.072V359.93Z" fill="#455A64"/>
<path d="M413.651 385.606L435.253 362.607L433.012 360.487L411.41 383.486L413.651 385.606Z" fill="#455A64"/>
<path d="M433.103 409.604L435.344 407.483L413.735 384.491L411.495 386.611L433.103 409.604Z" fill="#455A64"/>
<path d="M434.072 407.97H411.956V411.06H434.072V407.97Z" fill="#455A64"/>
<path d="M434.072 383.95H411.956V387.04H434.072V383.95Z" fill="#455A64"/>
<path d="M413.638 409.595L435.24 386.596L432.999 384.477L411.397 407.476L413.638 409.595Z" fill="#455A64"/>
<path d="M433.09 433.593L435.33 431.473L413.722 408.48L411.482 410.6L433.09 433.593Z" fill="#455A64"/>
<path d="M434.072 431.99H411.956V435.08H434.072V431.99Z" fill="#455A64"/>
<path d="M434.072 407.97H411.956V411.06H434.072V407.97Z" fill="#455A64"/>
<path d="M413.624 433.583L435.226 410.584L432.985 408.464L411.383 431.463L413.624 433.583Z" fill="#455A64"/>
<path d="M433.078 457.557L435.319 455.437L413.71 432.444L411.47 434.564L433.078 457.557Z" fill="#455A64"/>
<path d="M434.072 456.01H411.956V459.101H434.072V456.01Z" fill="#455A64"/>
<path d="M434.072 431.99H411.956V435.081H434.072V431.99Z" fill="#455A64"/>
<path d="M413.611 457.571L435.213 434.572L432.972 432.453L411.37 455.452L413.611 457.571Z" fill="#455A64"/>
<path d="M433.056 481.55L435.297 479.431L413.698 456.428L411.457 458.548L433.056 481.55Z" fill="#455A64"/>
<path d="M434.072 480.03H411.956V483.12H434.072V480.03Z" fill="#455A64"/>
<path d="M434.072 456.01H411.956V459.1H434.072V456.01Z" fill="#455A64"/>
<path d="M413.597 481.569L435.199 458.57L432.958 456.45L411.356 479.449L413.597 481.569Z" fill="#455A64"/>
<path d="M433.044 505.539L435.285 503.419L413.686 480.417L411.445 482.536L433.044 505.539Z" fill="#455A64"/>
<path d="M434.072 503.91H411.956V507H434.072V503.91Z" fill="#455A64"/>
<path d="M434.072 480.03H411.956V483.121H434.072V480.03Z" fill="#455A64"/>
<path d="M413.584 505.552L435.186 482.553L432.945 480.433L411.343 503.432L413.584 505.552Z" fill="#455A64"/>
<path d="M437.011 503.629H409.996V517.535H437.011V503.629Z" fill="#455A64"/>
<path d="M437.151 241.234H431.552V504.612H437.151V241.234Z" fill="#455A64"/>
<path d="M415.595 241.234H409.996V504.612H415.595V241.234Z" fill="#455A64"/>
<path d="M196.953 239.268L220.889 215.669L423.014 177.883L484.463 215.81L486.142 213.141L423.574 174.512L219.35 212.719L194.714 237.161L196.953 239.268Z" fill="#455A64"/>
<path d="M398.658 218.9L423.294 184.626L446.81 218.9L451.849 215.388L423.434 173.95L393.619 215.388L398.658 218.9Z" fill="#263238"/>
<path d="M222.672 242.339L245.591 220.661L243.479 218.412L220.56 240.09L222.672 242.339Z" fill="#455A64"/>
<path d="M222.149 218.9H219.07V241.094H222.149V218.9Z" fill="#455A64"/>
<path d="M246.085 218.9H243.005V241.094H246.085V218.9Z" fill="#455A64"/>
<path d="M243.38 242.339L245.493 240.091L222.577 218.41L220.465 220.658L243.38 242.339Z" fill="#455A64"/>
<path d="M246.576 242.352L269.495 220.674L267.382 218.425L244.464 240.103L246.576 242.352Z" fill="#455A64"/>
<path d="M246.085 218.9H243.005V241.094H246.085V218.9Z" fill="#455A64"/>
<path d="M270.021 218.9H266.941V241.094H270.021V218.9Z" fill="#455A64"/>
<path d="M267.285 242.356L269.398 240.107L246.483 218.426L244.37 220.675L267.285 242.356Z" fill="#455A64"/>
<path d="M270.48 242.365L293.399 220.687L291.287 218.438L268.368 240.116L270.48 242.365Z" fill="#455A64"/>
<path d="M270.021 218.9H266.941V241.094H270.021V218.9Z" fill="#455A64"/>
<path d="M293.817 218.9H290.737V241.094H293.817V218.9Z" fill="#455A64"/>
<path d="M291.287 242.267L293.399 240.019L270.484 218.338L268.372 220.586L291.287 242.267Z" fill="#455A64"/>
<path d="M294.384 242.377L317.302 220.698L315.19 218.45L292.272 240.128L294.384 242.377Z" fill="#455A64"/>
<path d="M293.816 218.9H290.737V241.094H293.816V218.9Z" fill="#455A64"/>
<path d="M317.752 218.9H314.673V241.094H317.752V218.9Z" fill="#455A64"/>
<path d="M315.192 242.281L317.305 240.032L294.389 218.351L292.277 220.6L315.192 242.281Z" fill="#455A64"/>
<path d="M318.39 242.294L341.308 220.616L339.196 218.367L316.278 240.045L318.39 242.294Z" fill="#455A64"/>
<path d="M317.752 218.9H314.673V241.094H317.752V218.9Z" fill="#455A64"/>
<path d="M341.688 218.9H338.608V241.094H341.688V218.9Z" fill="#455A64"/>
<path d="M339.09 242.284L341.202 240.035L318.29 218.351L316.177 220.599L339.09 242.284Z" fill="#455A64"/>
<path d="M342.294 242.306L365.212 220.628L363.1 218.379L340.182 240.057L342.294 242.306Z" fill="#455A64"/>
<path d="M341.688 218.9H338.608V241.094H341.688V218.9Z" fill="#455A64"/>
<path d="M365.624 218.9H362.544V241.094H365.624V218.9Z" fill="#455A64"/>
<path d="M363.006 242.314L365.118 240.065L342.203 218.384L340.09 220.633L363.006 242.314Z" fill="#455A64"/>
<path d="M366.198 242.318L389.116 220.64L387.004 218.392L364.086 240.07L366.198 242.318Z" fill="#455A64"/>
<path d="M365.624 218.9H362.544V241.094H365.624V218.9Z" fill="#455A64"/>
<path d="M389.559 218.9H386.48V241.094H389.559V218.9Z" fill="#455A64"/>
<path d="M386.911 242.327L389.023 240.079L366.108 218.398L363.995 220.646L386.911 242.327Z" fill="#455A64"/>
<path d="M390.102 242.331L413.021 220.653L410.909 218.404L387.99 240.082L390.102 242.331Z" fill="#455A64"/>
<path d="M389.559 218.9H386.48V241.094H389.559V218.9Z" fill="#455A64"/>
<path d="M413.495 218.9H410.416V241.094H413.495V218.9Z" fill="#455A64"/>
<path d="M410.817 242.342L412.929 240.093L390.014 218.412L387.901 220.66L410.817 242.342Z" fill="#455A64"/>
<path d="M414.006 242.343L436.924 220.665L434.812 218.416L411.893 240.094L414.006 242.343Z" fill="#455A64"/>
<path d="M413.495 218.9H410.416V241.094H413.495V218.9Z" fill="#455A64"/>
<path d="M437.431 218.9H434.351V241.094H437.431V218.9Z" fill="#455A64"/>
<path d="M434.718 242.349L436.831 240.1L413.915 218.419L411.803 220.668L434.718 242.349Z" fill="#455A64"/>
<path d="M437.91 242.356L460.829 220.678L458.716 218.429L435.798 240.107L437.91 242.356Z" fill="#455A64"/>
<path d="M437.431 218.9H434.352V241.094H437.431V218.9Z" fill="#455A64"/>
<path d="M461.227 218.9H458.147V241.094H461.227V218.9Z" fill="#455A64"/>
<path d="M458.725 242.269L460.837 240.02L437.922 218.339L435.81 220.587L458.725 242.269Z" fill="#455A64"/>
<path d="M461.814 242.369L484.733 220.691L482.621 218.442L459.702 240.12L461.814 242.369Z" fill="#455A64"/>
<path d="M461.227 218.9H458.147V241.094H461.227V218.9Z" fill="#455A64"/>
<path d="M485.163 218.9H482.083V241.094H485.163V218.9Z" fill="#455A64"/>
<path d="M482.631 242.283L484.743 240.034L461.828 218.353L459.715 220.601L482.631 242.283Z" fill="#455A64"/>
<path d="M500 213.141H486.143V245.167H500V213.141Z" fill="#263238"/>
<path d="M486.002 213.141H472.145V245.167H486.002V213.141Z" fill="#455A64"/>
<path d="M480.544 242.779H453.808V258.793H480.544V242.779Z" fill="#455A64"/>
<path d="M486.143 237.161H194.854V242.779H486.143V237.161Z" fill="#455A64"/>
<path d="M210.951 221.147H486.142V215.669H216.55L210.951 221.147Z" fill="#455A64"/>
<path d="M216.83 218.9H213.75V241.094H216.83V218.9Z" fill="#455A64"/>
<path d="M253.924 246.01H250.844V319.615H253.924V246.01Z" fill="#263238"/>
<path d="M227.888 246.993H224.809V320.599H227.888V246.993Z" fill="#263238"/>
<path d="M259.523 242.779H218.93V249.381H259.523V242.779Z" fill="#455A64"/>
<path d="M237.686 327.341L237.966 334.224L238.946 333.1C237.826 333.381 236.847 333.803 235.867 334.505C234.887 335.067 234.047 335.91 233.487 336.893C232.227 339 232.367 341.529 233.627 343.355C234.887 345.181 236.987 346.304 239.086 346.164C241.186 346.164 243.005 344.759 244.125 343.074C242.865 344.619 240.906 345.602 239.086 345.462C237.266 345.321 235.447 344.197 234.607 342.652C233.767 341.107 233.907 339.141 234.887 337.736C235.867 336.472 237.686 335.629 239.366 335.348L240.346 335.208V334.224L240.626 327.341H237.686Z" fill="#263238"/>
<path d="M218.93 313.294V324.391L239.226 329.308L259.523 324.391V313.294H218.93Z" fill="#455A64"/>
<path d="M252.524 322.284C253.838 322.284 254.903 321.215 254.903 319.896C254.903 318.577 253.838 317.508 252.524 317.508C251.209 317.508 250.144 318.577 250.144 319.896C250.144 321.215 251.209 322.284 252.524 322.284Z" fill="#263238"/>
<path d="M225.928 322.284C227.243 322.284 228.308 321.215 228.308 319.896C228.308 318.577 227.243 317.508 225.928 317.508C224.614 317.508 223.549 318.577 223.549 319.896C223.549 321.215 224.614 322.284 225.928 322.284Z" fill="#263238"/>
<path d="M180.437 351.783L195.134 349.957L209.691 348.271L239.086 344.9H239.226L268.621 348.271L283.178 349.957L297.876 351.783L283.178 350.519L268.481 349.114L239.086 346.024H239.226L209.831 349.114L195.134 350.519L180.437 351.783Z" fill="#263238"/>
<path d="M297.876 351.783H180.437V355.294H297.876V351.783Z" fill="#C7C7C7"/>
<path d="M297.876 355.435H180.437V358.947H297.876V355.435Z" fill="#DBDBDB"/>
<path d="M423.294 181.395C426.154 181.395 428.473 179.068 428.473 176.197C428.473 173.327 426.154 171 423.294 171C420.433 171 418.115 173.327 418.115 176.197C418.115 179.068 420.433 181.395 423.294 181.395Z" fill="#A6A6A6"/>
<path d="M423.293 178.585C424.608 178.585 425.673 177.516 425.673 176.197C425.673 174.878 424.608 173.809 423.293 173.809C421.979 173.809 420.914 174.878 420.914 176.197C420.914 177.516 421.979 178.585 423.293 178.585Z" fill="#455A64"/>
<path d="M445.97 517.676H401.177V528.351H445.97V517.676Z" fill="#263238"/>
<path d="M455.628 528.211H391.519V549H455.628V528.211Z" fill="#455A64"/>
<path d="M397.538 263.849H445.41V210.612H414.195C408.736 210.612 404.117 214.686 403.417 220.164L397.538 263.849Z" fill="#263238"/>
<path d="M410.556 247.555H432.952C433.232 247.555 433.512 247.555 433.652 247.415C434.632 247.134 435.472 246.151 435.472 245.027V216.652H419.514C418.954 216.652 418.395 216.652 417.975 216.793C416.715 217.074 415.595 217.495 414.615 218.197C413.915 218.619 413.215 219.181 412.796 219.883C411.676 221.147 410.976 222.692 410.836 224.519L408.176 244.886C407.896 246.291 409.016 247.555 410.556 247.555Z" fill="#EBEBEB"/>
<g opacity="0.5">
<path opacity="0.5" d="M428.753 216.652L409.156 236.037L410.696 224.519C410.836 223.114 411.396 221.99 412.096 220.866L414.895 218.197C415.875 217.636 416.855 217.214 417.975 216.933C418.535 216.793 419.094 216.793 419.514 216.793H428.753V216.652Z" fill="#EBEBEB"/>
<path opacity="0.5" d="M435.472 223.535V231.12L418.815 247.555H411.256L435.472 223.535Z" fill="#EBEBEB"/>
<path opacity="0.5" d="M435.472 234.07V235.194L423.014 247.555H421.894L435.472 234.07Z" fill="#EBEBEB"/>
</g>
</g>
<g clip-path="url(#clip0)">
<path d="M319.872 632.875C397.263 632.875 460 628.473 460 623.044C460 617.614 397.263 613.212 319.872 613.212C242.482 613.212 179.744 617.614 179.744 623.044C179.744 628.473 242.482 632.875 319.872 632.875Z" fill="#EBEBEB"/>
<path d="M135.111 620.225C176.593 620.225 210.221 616.851 210.221 612.688C210.221 608.525 176.593 605.151 135.111 605.151C93.6282 605.151 60 608.525 60 612.688C60 616.851 93.6282 620.225 135.111 620.225Z" fill="#EBEBEB"/>
</g>
<g clip-path="url(#clip1)">
<path d="M373.883 580.999L375.836 607.771C375.836 613.031 375.769 617.617 375.567 619.977C375.567 619.977 375.567 619.977 375.567 620.045C375.499 620.921 375.365 621.528 375.162 621.663C373.613 622.742 331.711 624.158 330.229 623.754C328.747 623.349 329.892 619.033 331.441 617.684C333.058 616.336 348.822 608.581 348.822 608.581L347.138 581.808L373.883 580.999Z" fill="#D3766A"/>
<path d="M375.836 602.174C375.836 602.174 375.836 607.771 375.836 607.838C375.836 613.099 375.769 617.684 375.567 620.044C375.567 620.044 375.567 620.044 375.567 620.112C375.432 620.989 375.297 621.595 375.162 621.73C373.613 622.809 331.711 624.226 330.229 623.821C328.747 623.416 329.892 619.1 331.441 617.752C333.058 616.403 348.822 608.648 348.822 608.648L348.755 602.916L375.836 602.174Z" fill="white"/>
<path d="M330.228 623.754C331.711 624.226 373.545 622.742 375.162 621.663C375.769 621.258 375.903 615.122 375.903 607.771C375.903 607.704 375.903 607.636 375.903 607.569L348.889 608.176V608.648C348.889 608.648 333.125 616.403 331.508 617.752C329.892 619.1 328.746 623.349 330.228 623.754Z" fill="white" stroke="#322242" stroke-miterlimit="10"/>
<path d="M330.633 622.135C337.706 621.731 366.135 620.719 373.141 620.854C373.209 620.854 373.209 620.922 373.141 620.922C366.135 621.461 337.706 622.27 330.633 622.27C330.498 622.203 330.498 622.135 330.633 622.135Z" fill="#263238"/>
<path d="M346.599 608.783C349.361 608.176 352.796 608.446 354.952 610.401C355.02 610.469 354.952 610.604 354.817 610.536C352.055 609.794 349.495 609.322 346.599 609.12C346.396 609.12 346.396 608.85 346.599 608.783Z" fill="#263238"/>
<path d="M344.578 610.064C347.34 609.457 350.776 609.727 352.931 611.683C352.999 611.75 352.931 611.885 352.797 611.817C350.035 611.076 347.475 610.604 344.578 610.401C344.443 610.401 344.443 610.132 344.578 610.064Z" fill="#263238"/>
<path d="M342.624 611.345C345.386 610.738 348.822 611.008 350.978 612.964C351.045 613.031 350.978 613.166 350.843 613.099C348.081 612.357 345.521 611.885 342.624 611.683C342.489 611.683 342.422 611.413 342.624 611.345Z" fill="#263238"/>
<path d="M377.453 608.918L348.148 608.311C348.148 608.311 344.578 555.508 345.251 537.907C345.992 518.823 354.211 461.906 354.211 461.906H378.935C378.935 461.906 372.602 519.025 372.468 538.109C372.333 555.913 377.453 608.918 377.453 608.918Z" fill="#322242"/>
<path d="M358.994 461.974L373.882 513.495C375.634 489.151 378.935 461.974 378.935 461.974H358.994Z" fill="#20172B"/>
<path d="M349.361 603.455C353.942 603.388 352.594 603.388 357.175 603.388C359.399 603.388 374.152 603.455 376.24 603.792C376.308 603.792 376.308 603.86 376.24 603.86C374.152 604.197 359.466 603.86 357.175 603.792C352.594 603.725 353.942 603.657 349.361 603.523C349.293 603.59 349.293 603.455 349.361 603.455Z" fill="#37474F"/>
<path d="M421.578 566.635L435.725 589.631C438.016 594.351 439.969 598.532 440.778 600.758C440.778 600.758 440.778 600.758 440.778 600.825C441.047 601.702 441.249 602.241 441.115 602.444C441.115 602.444 441.115 602.444 441.115 602.511C440.172 604.129 403.052 623.619 401.57 623.888C400.021 624.158 399.212 619.775 400.088 617.887C400.964 615.998 411.81 602.174 411.81 602.174L397.932 579.043L421.578 566.635Z" fill="#D3766A"/>
<path d="M441.115 602.444C440.172 604.129 403.052 623.619 401.503 623.821C399.954 624.091 399.145 619.707 400.021 617.819C400.897 615.931 411.743 602.106 411.743 602.106L409.25 597.993C415.313 594.756 426.361 589.091 433.166 585.584C434.648 588.012 435.658 589.631 435.658 589.698C437.949 594.419 439.902 598.6 440.711 600.825C440.711 600.825 440.711 600.825 440.711 600.893C441.048 601.634 441.182 602.241 441.115 602.444Z" fill="white"/>
<path d="M401.503 623.821C403.052 623.551 440.104 604.129 441.047 602.443C441.384 601.837 438.892 596.239 435.658 589.631C435.591 589.563 435.591 589.496 435.523 589.428L411.473 601.702L411.675 602.106C411.675 602.106 400.829 615.931 399.954 617.819C399.212 619.775 400.021 624.091 401.503 623.821Z" fill="white" stroke="#322242" stroke-miterlimit="10"/>
<path d="M401.166 622.203C407.364 618.763 432.559 605.478 438.959 602.579C439.026 602.579 439.026 602.579 438.959 602.646C432.896 606.153 407.566 619.235 401.234 622.337C401.099 622.337 401.031 622.27 401.166 622.203Z" fill="#263238"/>
<path d="M409.789 603.253C412.012 601.5 415.246 600.286 418.008 601.095C418.143 601.095 418.075 601.297 418.008 601.297C415.179 601.837 412.686 602.511 409.991 603.59C409.722 603.658 409.587 603.388 409.789 603.253Z" fill="#263238"/>
<path d="M408.577 605.276C410.8 603.523 414.033 602.309 416.795 603.118C416.93 603.118 416.863 603.32 416.795 603.32C413.966 603.86 411.473 604.534 408.779 605.613C408.509 605.613 408.374 605.411 408.577 605.276Z" fill="#263238"/>
<path d="M407.364 607.232C409.587 605.478 412.821 604.264 415.583 605.074C415.717 605.074 415.65 605.276 415.583 605.276C412.753 605.815 410.261 606.49 407.566 607.569C407.297 607.636 407.162 607.366 407.364 607.232Z" fill="#263238"/>
<path d="M356.704 461.906C356.704 461.906 356.704 461.974 356.704 461.906C356.839 462.446 358.523 470.471 360.342 477.417C361.622 482.474 362.969 486.925 363.777 487.33C364.653 487.869 368.897 489.758 370.312 490.297C370.312 490.297 379.878 538.042 384.931 552.878C389.579 566.568 408.846 603.051 408.846 603.051L436.803 588.889C436.803 588.889 414.976 551.799 412.686 545.19C409.115 534.873 395.777 484.498 395.777 484.498C395.777 484.498 395.911 468.717 390.589 461.839H356.704V461.906Z" fill="#322242"/>
<path d="M374.219 464.739L372.67 481.733L371.188 498.727C370.245 510.056 369.369 521.385 368.695 532.715C368.56 535.547 368.426 538.379 368.493 541.279C368.56 544.111 368.695 546.944 368.83 549.776C369.099 555.441 369.504 561.105 369.908 566.77C370.312 572.435 370.784 578.099 371.255 583.764L372.805 600.758L371.525 583.764C371.12 578.099 370.716 572.435 370.312 566.77C369.975 561.105 369.571 555.441 369.301 549.776C369.167 546.944 369.032 544.111 369.032 541.279C369.032 538.447 369.099 535.614 369.301 532.782C369.908 521.453 370.784 510.123 371.659 498.794L374.219 464.739Z" fill="#22182D"/>
<path d="M409.25 597.656C413.225 595.43 412.079 596.037 416.054 593.812C418.008 592.733 430.942 585.719 432.963 585.045C433.031 585.045 433.031 585.112 433.031 585.112C431.346 586.394 418.277 593.205 416.324 594.216C412.282 596.307 413.427 595.7 409.317 597.723C409.25 597.858 409.183 597.723 409.25 597.656Z" fill="#22182D"/>
<path d="M388.568 480.182C387.827 479.979 386.952 479.912 386.211 479.777C385.604 479.709 384.931 479.575 384.324 479.44C383.179 479.17 381.966 478.765 381.023 478.024C379.945 477.214 379.406 475.933 378.868 474.652C378.531 473.91 378.261 473.168 377.924 472.494C377.79 472.157 377.588 471.819 377.453 471.415C377.251 471.01 376.981 470.606 376.846 470.133C376.846 470.066 376.712 470.133 376.779 470.133C376.914 470.403 376.981 470.74 377.049 471.01C377.183 471.347 377.251 471.685 377.385 472.089C377.588 472.696 377.79 473.37 377.992 473.977C378.396 475.124 378.665 476.27 379.339 477.282C380.484 479.103 382.573 479.844 384.594 480.114C385.2 480.182 385.806 480.249 386.345 480.249C387.086 480.316 387.895 480.384 388.568 480.249C388.703 480.384 388.703 480.249 388.568 480.182Z" fill="#22182D"/>
<path d="M361.487 486.251C364.518 487.262 367.482 488.813 370.245 490.364C370.379 490.432 370.312 490.567 370.177 490.567C367.213 489.285 364.249 488.071 361.352 486.655C361.083 486.453 361.285 486.116 361.487 486.251Z" fill="#22182D"/>
<path d="M360.611 465.952C360.611 465.817 360.813 465.817 360.813 465.952C360.813 469.459 361.015 472.561 361.285 475.798C361.42 477.349 362.632 485.711 365.259 485.104C365.731 484.969 365.933 484.565 366 483.89C366.068 483.081 365.798 482.137 365.664 481.328C365.394 479.574 365.125 477.821 364.99 476C364.721 472.696 364.721 469.391 365.125 466.02C365.125 465.885 365.327 465.952 365.327 466.02C365.327 470.605 365.462 475.191 366.135 479.777C366.472 481.935 367.55 485.239 365.259 485.576C362.902 485.913 361.42 480.384 361.15 478.9C360.274 474.786 360.274 470.268 360.611 465.952Z" fill="#22182D"/>
<path d="M365.192 485.374C365.461 485.913 365.596 486.52 365.798 487.127C365.933 487.599 366.068 488.071 366.068 488.543C366.068 488.611 365.933 488.678 365.866 488.611C365.529 488.206 365.394 487.667 365.259 487.195C365.057 486.655 364.855 486.116 364.653 485.576C364.518 485.239 365.057 485.037 365.192 485.374Z" fill="#22182D"/>
<path d="M429.258 584.371C425.283 576.885 421.174 569.467 417.065 562.049C415.044 558.408 412.888 554.766 411.002 551.057C409.115 547.416 407.768 543.572 406.555 539.593C404.063 531.568 401.772 523.543 399.549 515.451C397.326 507.358 395.305 499.266 393.351 491.106C392.88 489.083 392.341 487.06 391.937 484.969C391.532 482.812 391.667 480.856 391.937 478.698C392.206 476.742 392.274 474.787 392.004 472.831C391.735 470.875 391.196 468.987 390.657 467.099C390.32 466.087 389.983 465.143 389.646 464.132C389.579 463.997 389.444 464.064 389.444 464.199C390.657 468.178 391.869 472.157 391.6 476.338C391.465 478.361 390.926 480.316 390.994 482.339C391.061 484.363 391.532 486.318 392.004 488.274C393.89 496.501 395.979 504.661 398.134 512.753C400.29 520.913 402.648 529.006 405.073 537.03C406.286 540.942 407.364 544.921 409.048 548.697C410.732 552.473 412.888 555.98 414.909 559.554C419.086 566.972 423.262 574.323 427.507 581.673C428.045 582.617 428.584 583.494 429.123 584.438C429.191 584.438 429.258 584.438 429.258 584.371Z" fill="#22182D"/>
<path d="M283.611 539.188C283.611 539.188 247.906 526.51 240.765 526.375C233.557 526.241 185.255 554.294 185.255 554.294L283.611 539.188Z" fill="white" stroke="#322242" stroke-miterlimit="10"/>
<path opacity="0.3" d="M283.611 539.188C283.611 539.188 247.906 526.51 240.765 526.375C233.557 526.241 185.255 554.294 185.255 554.294L283.611 539.188Z" fill="white" stroke="#322242" stroke-miterlimit="10"/>
<path d="M256.866 591.114L268.386 585.584L265.219 546.336L272.832 535.951L271.013 534.603L262.794 545.662L265.893 584.168L256.933 588.484L230.997 572.772L223.519 576.346L224.53 578.504L230.862 575.402L256.866 591.114Z" fill="#322242"/>
<path d="M198.391 614.447C210.669 614.447 220.622 604.484 220.622 592.193C220.622 579.903 210.669 569.939 198.391 569.939C186.113 569.939 176.16 579.903 176.16 592.193C176.16 604.484 186.113 614.447 198.391 614.447Z" fill="#322242"/>
<path d="M198.391 603.927C204.865 603.927 210.113 598.674 210.113 592.193C210.113 585.713 204.865 580.459 198.391 580.459C191.917 580.459 186.669 585.713 186.669 592.193C186.669 598.674 191.917 603.927 198.391 603.927Z" fill="white" stroke="#322242" stroke-miterlimit="10"/>
<path d="M180.539 614.987L323.222 487.667L337.302 480.856L335.079 476.203L320.326 483.351L177.103 611.143L180.539 614.987Z" fill="#775130" stroke="#322242" stroke-miterlimit="10"/>
<path opacity="0.3" d="M180.539 614.987L323.222 487.667L337.302 480.856L335.079 476.203L320.326 483.351L177.103 611.143L180.539 614.987Z" fill="#775130" stroke="#322242" stroke-miterlimit="10"/>
<path d="M327.691 485.864L344.434 477.771L341.798 472.306L325.055 480.399L327.691 485.864Z" fill="#322242"/>
<path d="M263.805 596.577L275.324 590.979L272.158 551.799L279.838 541.414L277.952 539.998L269.8 551.125L272.899 589.631L263.939 593.947L237.936 578.167L230.458 581.808L231.469 583.899L237.801 580.864L263.805 596.577Z" fill="#322242"/>
<path d="M209.305 620.652C221.583 620.652 231.536 610.688 231.536 598.398C231.536 586.107 221.583 576.144 209.305 576.144C197.027 576.144 187.074 586.107 187.074 598.398C187.074 610.688 197.027 620.652 209.305 620.652Z" fill="#322242"/>
<path d="M209.305 610.131C215.779 610.131 221.027 604.878 221.027 598.398C221.027 591.917 215.779 586.664 209.305 586.664C202.831 586.664 197.583 591.917 197.583 598.398C197.583 604.878 202.831 610.131 209.305 610.131Z" fill="white" stroke="#322242" stroke-miterlimit="10"/>
<path d="M170.959 553.479L301.998 528.523L301.268 524.68L170.228 549.636L170.959 553.479Z" fill="#775130" stroke="#322242" stroke-miterlimit="10"/>
<path d="M298.431 529.208L290.549 554.564L216.85 581.268L174.476 552.81L298.431 529.208Z" fill="#89613E" stroke="#322242" stroke-miterlimit="10"/>
<path opacity="0.1" d="M174.476 552.81L177.979 555.171L296.006 537.098L298.431 529.208L174.476 552.81Z" fill="#89613E" stroke="#322242" stroke-miterlimit="10"/>
<path d="M232.951 580.999L229.582 576.548L281.118 558.003L232.951 580.999Z" fill="#775130" stroke="#322242" stroke-miterlimit="10"/>
<path d="M192.328 619.235L335.012 491.915L349.091 485.104L346.868 480.519L332.182 487.599L188.96 615.391L192.328 619.235Z" fill="#775130" stroke="#322242" stroke-miterlimit="10"/>
<path opacity="0.3" d="M192.328 619.235L335.012 491.915L349.091 485.104L346.868 480.519L332.182 487.599L188.96 615.391L192.328 619.235Z" fill="#775130" stroke="#322242" stroke-miterlimit="10"/>
<path d="M360.207 430.346C363.171 444.17 362.295 462.108 361.15 467.234C359.735 473.573 341.681 480.991 336.898 482.609C334.81 483.283 331.643 465.278 333.799 464.469C335.685 463.794 348.013 458.265 348.485 457.051C348.754 456.376 350.843 441.136 353.605 429.469C355.693 420.905 359.331 426.232 360.207 430.346Z" fill="#FFD4E4" stroke="#322242" stroke-miterlimit="10"/>
<path d="M332.115 479.844C333.193 479.912 333.125 480.519 331.576 481.53C329.959 482.542 322.953 485.239 324.098 487.599C325.243 490.027 334.742 486.116 337.235 484.228" fill="#FFD4E4"/>
<path d="M332.115 479.844C333.193 479.912 333.125 480.519 331.576 481.53C329.959 482.542 322.953 485.239 324.098 487.599C325.243 490.027 334.742 486.116 337.235 484.228" stroke="#322242" stroke-miterlimit="10"/>
<path d="M343.433 478.293C341.277 478.698 330.498 479.709 323.29 481.8C320.124 482.744 316.755 486.52 315.408 484.43C314.195 482.609 316.823 480.181 316.823 480.181C316.823 480.181 316.284 478.496 317.833 476C317.833 476 317.564 474.314 319.787 472.291C319.787 472.291 319.921 471.28 320.865 470.403L333.799 464.469" fill="#FFD4E4"/>
<path d="M343.433 478.293C341.277 478.698 330.498 479.709 323.29 481.8C320.124 482.744 316.755 486.52 315.408 484.43C314.195 482.609 316.823 480.181 316.823 480.181C316.823 480.181 316.284 478.496 317.833 476C317.833 476 317.564 474.314 319.787 472.291C319.787 472.291 319.921 471.28 320.865 470.403L333.799 464.469" stroke="#322242" stroke-miterlimit="10"/>
<path d="M329.285 474.315C327.197 474.989 325.109 475.596 323.088 476.54C320.865 477.552 318.911 478.968 316.957 480.317C316.89 480.384 316.823 480.249 316.89 480.249C320.124 477.214 324.907 475.056 329.285 474.315C329.42 474.247 329.353 474.18 329.285 474.315Z" fill="#FFD4E4"/>
<path d="M329.285 474.315C327.197 474.989 325.109 475.596 323.088 476.54C320.865 477.552 318.911 478.968 316.957 480.317C316.89 480.384 316.823 480.249 316.89 480.249C320.124 477.214 324.907 475.056 329.285 474.315C329.353 474.18 329.42 474.247 329.285 474.315Z" stroke="#322242" stroke-miterlimit="10"/>
<path d="M328.679 469.729C326.658 470.471 323.155 471.819 317.901 476.068C317.901 476.068 317.833 476.068 317.901 476.068C320.932 472.898 324.435 470.875 328.612 469.661C328.747 469.594 328.814 469.729 328.679 469.729Z" fill="#FFD4E4" stroke="#322242" stroke-miterlimit="10"/>
<path d="M319.855 472.359C319.855 472.359 319.786 472.359 319.855 472.359V472.359Z" fill="#FFD4E4"/>
<path d="M319.855 472.359C319.855 472.359 319.786 472.359 319.855 472.359" stroke="#322242" stroke-miterlimit="10"/>
<path d="M363.979 447.475L350.371 442.147C350.371 442.147 351.651 432.639 353.672 426.772C355.693 420.837 357.984 420.028 360.881 428.727C363.71 437.292 363.979 447.475 363.979 447.475Z" fill="#FFD4E4" stroke="#322242" stroke-miterlimit="10"/>
<path d="M363.643 447.34L363.979 447.475V447.407C363.979 446.126 363.912 444.912 363.845 443.631C363.777 442.35 363.643 441.136 363.508 439.922C363.306 438.708 363.171 437.427 362.902 436.213C362.632 434.999 362.363 433.785 361.958 432.571C362.161 433.785 362.43 434.999 362.632 436.28C362.834 437.494 363.036 438.775 363.171 439.989C363.306 441.203 363.441 442.484 363.575 443.698C363.71 444.912 363.845 446.193 363.979 447.407L363.643 447.34Z" fill="#FFD4E4" stroke="#322242" stroke-miterlimit="10"/>
<path d="M394.901 470.606C394.834 470.74 352.19 479.305 351.719 478.968C351.045 478.428 350.237 434.257 355.357 423.602C356.637 420.972 362.43 418.275 365.394 420.163C373.95 425.693 376.577 431.223 379.339 435.606C381.36 438.843 384.19 444.508 386.817 450.375C391.196 460.018 395.171 470.134 394.901 470.606Z" fill="white" stroke="#322242" stroke-miterlimit="10"/>
<path d="M366.135 420.163C366.135 420.163 362.43 435.673 362.026 439.585C361.487 444.845 365.394 478.428 365.394 478.428L395.709 471.145C395.709 471.145 383.92 439.045 375.162 428.458C368.224 420.096 366.135 420.163 366.135 420.163Z" fill="#FFC727" stroke="#322242" stroke-miterlimit="10"/>
<path d="M356.3 422.591C356.3 422.591 355.087 436.348 354.75 438.438C354.413 440.529 355.087 480.182 355.087 480.182L351.045 479.44C351.045 479.44 350.506 451.993 351.853 437.764C353.201 423.602 356.3 422.591 356.3 422.591Z" fill="#FFC727" stroke="#322242" stroke-miterlimit="10"/>
<path d="M364.316 465.211L391.061 460.153C390.657 459.141 390.185 458.13 389.781 457.051L364.047 461.974C364.047 463.053 364.182 464.132 364.316 465.211Z" fill="#EBEBEB"/>
<path d="M351.314 467.571L354.548 466.897C354.548 465.818 354.481 464.806 354.481 463.727L351.314 464.267C351.314 465.413 351.314 466.492 351.314 467.571Z" fill="#EBEBEB"/>
<path d="M364.586 470.943L393.284 465.615C392.88 464.671 392.476 463.66 392.004 462.513L364.249 467.706C364.316 468.852 364.451 469.931 364.586 470.943Z" fill="#EBEBEB"/>
<path d="M351.382 473.438L355.356 472.696C355.356 471.684 355.289 470.538 355.289 469.392L351.314 470.133C351.382 471.28 351.382 472.426 351.382 473.438Z" fill="#EBEBEB"/>
<path d="M360.544 428.12C362.363 427.716 365.057 423.332 365.731 420.163C365.798 419.961 364.855 418.072 363.912 415.712C363.306 414.296 362.7 412.677 362.228 411.194L353.538 416.454C353.538 416.454 355.424 419.286 356.232 421.916C356.3 422.119 356.367 422.321 356.367 422.523C356.367 422.523 356.367 422.591 356.367 422.658C356.502 423.872 357.782 428.795 360.544 428.12Z" fill="#FFD4E4" stroke="#322242" stroke-miterlimit="10"/>
<path d="M356.367 422.523C356.367 422.523 356.367 422.591 356.367 422.658C356.704 422.591 356.973 422.523 357.378 422.389C362.767 420.568 362.026 413.419 361.756 411.531L353.538 416.454C353.538 416.454 355.424 419.286 356.232 421.916C356.3 422.119 356.3 422.321 356.367 422.523Z" fill="#FFD4E4" stroke="#322242" stroke-miterlimit="10"/>
<path d="M360.342 399.393C362.295 402.495 363.171 412.678 361.42 415.51C358.792 419.624 353.201 421.444 349.428 418.005C345.723 414.701 344.78 401.348 346.936 398.651C350.035 394.739 357.512 394.874 360.342 399.393Z" fill="#FFD4E4" stroke="#322242" stroke-miterlimit="10"/>
<path d="M351.853 407.755C351.853 407.755 351.921 407.822 351.853 407.755C351.921 408.497 352.056 409.306 352.662 409.508V409.576C351.921 409.508 351.786 408.429 351.853 407.755Z" fill="#322242"/>
<path d="M352.46 407.013C353.538 406.878 353.74 409.104 352.73 409.239C351.719 409.373 351.517 407.148 352.46 407.013Z" fill="#322242"/>
<path d="M348.216 407.957C348.216 407.957 348.148 408.024 348.216 407.957C348.283 408.699 348.216 409.508 347.609 409.778V409.845C348.418 409.643 348.418 408.631 348.216 407.957Z" fill="#322242"/>
<path d="M347.542 407.283C346.464 407.283 346.532 409.508 347.542 409.508C348.553 409.508 348.485 407.283 347.542 407.283Z" fill="#322242"/>
<path d="M353.268 405.934C352.932 405.867 352.662 405.799 352.393 405.732C352.056 405.664 351.786 405.597 351.517 405.327C351.382 405.192 351.382 404.922 351.517 404.72C351.854 404.383 352.258 404.383 352.662 404.518C353.134 404.585 353.403 404.788 353.74 405.192C354.009 405.529 353.673 406.001 353.268 405.934Z" fill="#322242"/>
<path d="M346.666 406.541C346.936 406.474 347.205 406.339 347.542 406.204C347.879 406.069 348.148 406.001 348.351 405.732C348.485 405.597 348.418 405.26 348.283 405.192C347.946 404.922 347.542 404.922 347.138 405.057C346.734 405.192 346.397 405.395 346.127 405.799C345.925 406.136 346.33 406.608 346.666 406.541Z" fill="#322242"/>
<path d="M353.47 414.094C353.336 414.296 353.201 414.499 352.931 414.566C352.662 414.633 352.392 414.499 352.19 414.431C352.19 414.431 352.123 414.431 352.19 414.499C352.392 414.768 352.797 414.903 353.066 414.768C353.403 414.701 353.47 414.431 353.538 414.094C353.538 414.094 353.538 414.027 353.47 414.094Z" fill="#322242"/>
<path d="M352.595 412.071C352.258 412.678 351.719 413.082 351.113 413.217C350.843 413.285 350.574 413.352 350.304 413.352C350.237 413.352 350.169 413.352 350.169 413.352C350.102 413.352 350.102 413.352 350.035 413.352C349.967 413.352 349.9 413.285 349.9 413.217V413.15V413.082C349.833 412.543 349.833 411.734 349.833 411.734C349.631 411.869 348.687 412.408 348.687 412.071C348.62 409.778 348.553 407.215 348.957 404.923C348.957 404.855 349.092 404.855 349.092 404.923C349.226 407.148 349.024 409.373 349.092 411.599C349.428 411.464 349.9 411.194 350.169 411.194C350.237 411.194 350.169 412.745 350.237 413.015C351.113 413.082 351.786 412.745 352.595 412.071C352.595 412.003 352.595 412.003 352.595 412.071Z" fill="#322242"/>
<path d="M345.992 401.618C346.06 401.28 346.262 400.539 346.666 400.404C347.138 400.269 347.609 401.078 348.62 401.146C349.967 401.28 351.988 399.46 353.874 399.595C355.693 399.729 357.108 401.28 358.051 404.383C358.994 407.485 361.958 409.643 362.295 407.417C362.295 407.35 362.295 407.215 362.363 407.013C362.093 403.91 361.419 400.876 360.476 399.46C357.58 394.941 350.169 394.739 347.003 398.718C346.464 399.257 346.127 400.269 345.992 401.618Z" fill="#322242"/>
<path d="M360.476 407.889C360.476 407.889 361.891 404.18 363.508 404.585C365.125 404.99 364.653 409.98 363.104 411.059C361.554 412.138 360.611 410.722 360.611 410.722L360.476 407.889Z" fill="#FFD4E4" stroke="#322242" stroke-miterlimit="10"/>
<path d="M363.306 406.001C363.373 406.001 363.373 406.069 363.306 406.001C362.296 406.811 361.959 408.092 361.757 409.306C362.026 408.766 362.43 408.429 363.104 408.699C363.171 408.699 363.104 408.766 363.104 408.766C362.565 408.766 362.296 408.969 362.026 409.441C361.891 409.778 361.824 410.183 361.689 410.52C361.689 410.655 361.487 410.655 361.487 410.52C361.083 408.969 361.757 406.608 363.306 406.001Z" fill="#322242"/>
<path d="M344.713 403.911C344.713 403.911 344.376 393.795 353.403 393.458C362.43 393.121 362.902 403.236 362.902 403.236L344.713 403.911Z" fill="#FFC727" stroke="#322242" stroke-miterlimit="10"/>
<path d="M363.525 402.451L343.937 403.213L343.992 404.628L363.58 403.866L363.525 402.451Z" fill="#FFC727" stroke="#322242" stroke-miterlimit="10"/>
<path d="M353.605 402.832L349.563 403.034L350.102 393.053L354.211 392.918L353.605 402.832Z" fill="#FFC727" stroke="#322242" stroke-miterlimit="10"/>
<path opacity="0.1" d="M353.605 402.832L349.563 403.034L350.102 393.053L354.211 392.918L353.605 402.832Z" fill="black" stroke="#322242" stroke-miterlimit="10"/>
<path d="M373.141 429.334C380.417 441.473 385.537 460.085 384.863 465.278C383.987 472.021 362.43 482.272 357.782 484.497C355.828 485.441 346.464 468.312 348.552 467.233C350.371 466.289 368.426 459.613 368.695 458.871C368.965 458.197 367.28 442.956 366.337 430.75C365.664 421.984 369.369 423.13 373.141 429.334Z" fill="#FFD4E4" stroke="#322242" stroke-miterlimit="10"/>
<path d="M349.293 467.166C345.251 467.706 336.157 471.887 333.26 482.946C332.115 487.195 334.607 489.825 336.561 485.644C337.908 482.676 338.649 480.518 339.323 479.709C339.323 479.709 340.468 484.565 343.163 485.644C344.376 486.116 347.677 487.33 350.371 487.936C350.371 487.936 350.641 487.397 350.91 486.655C350.91 486.655 354.346 487.869 357.175 484.902L361.217 483.081" fill="#FFD4E4"/>
<path d="M349.293 467.166C345.251 467.706 336.157 471.887 333.26 482.946C332.115 487.195 334.607 489.825 336.561 485.644C337.908 482.676 338.649 480.518 339.323 479.709C339.323 479.709 340.468 484.565 343.163 485.644C344.376 486.116 347.677 487.33 350.371 487.936C350.371 487.936 350.641 487.397 350.91 486.655C350.91 486.655 354.346 487.869 357.175 484.902L361.217 483.081" stroke="#322242" stroke-miterlimit="10"/>
<path d="M340.132 477.349C338.515 481.395 336.426 489.623 339.391 490.769C341.614 491.646 342.624 488.544 342.624 488.544C342.624 488.544 342.489 492.118 344.645 492.455C346.599 492.792 347.273 490.364 347.273 490.364C347.273 490.364 347.542 492.522 349.496 492.522C351.853 492.455 350.843 487.869 353.133 485.779" fill="#FFD4E4"/>
<path d="M340.132 477.349C338.515 481.395 336.426 489.623 339.391 490.769C341.614 491.646 342.624 488.544 342.624 488.544C342.624 488.544 342.489 492.118 344.645 492.455C346.599 492.792 347.273 490.364 347.273 490.364C347.273 490.364 347.542 492.522 349.496 492.522C351.853 492.455 350.843 487.869 353.133 485.779" stroke="#322242" stroke-miterlimit="10"/>
<path d="M344.645 478.361C343.567 480.047 342.018 484.565 342.557 488.476C342.557 488.544 342.624 488.611 342.624 488.544C342.961 484.093 344.106 480.047 344.645 478.361C344.713 478.361 344.645 478.361 344.645 478.361Z" fill="#FFD4E4"/>
<path d="M344.645 478.361C343.567 480.047 342.018 484.565 342.557 488.476C342.557 488.544 342.624 488.611 342.624 488.544C342.961 484.093 344.106 480.047 344.645 478.361ZM344.645 478.361C344.713 478.361 344.645 478.361 344.645 478.361Z" stroke="#322242" stroke-miterlimit="10"/>
<path d="M348.687 480.114C347.879 481.665 346.531 486.386 347.205 490.365C347.205 490.432 347.273 490.499 347.273 490.432C347.407 485.779 348.216 481.868 348.687 480.114C348.755 480.114 348.687 480.114 348.687 480.114Z" fill="#FFD4E4"/>
<path d="M348.687 480.114C347.879 481.665 346.531 486.386 347.205 490.365C347.205 490.432 347.273 490.499 347.273 490.432C347.407 485.779 348.216 481.868 348.687 480.114ZM348.687 480.114C348.755 480.114 348.687 480.114 348.687 480.114Z" stroke="#322242" stroke-miterlimit="10"/>
<path d="M333.125 486.453C332.25 478.9 339.121 472.022 343.365 469.392C345.049 468.313 347.879 467.301 350.573 466.424" fill="#FFD4E4"/>
<path d="M333.125 486.453C332.25 478.9 339.121 472.022 343.365 469.392C345.049 468.313 347.879 467.301 350.573 466.424" stroke="#322242" stroke-miterlimit="10"/>
<path d="M381.158 444.238L366.607 443.024C366.607 443.024 365.125 433.583 365.327 427.311C365.529 421.039 367.55 419.623 372.805 427.109C377.992 434.594 381.158 444.238 381.158 444.238Z" fill="#FFD4E4" stroke="#322242" stroke-miterlimit="10"/>
<path d="M366.944 440.326C367.954 440.259 378.396 441.135 379.407 441.405C379.474 441.405 379.474 441.472 379.407 441.472C378.329 441.54 367.887 440.596 366.944 440.326C366.876 440.393 366.876 440.326 366.944 440.326Z" fill="#FFD4E4"/>
<path d="M366.944 440.326C367.954 440.259 378.396 441.135 379.407 441.405C379.474 441.405 379.474 441.472 379.407 441.472C378.329 441.54 367.887 440.596 366.944 440.326ZM366.944 440.326C366.876 440.393 366.876 440.326 366.944 440.326Z" stroke="#322242" stroke-miterlimit="10"/>
<path d="M365.327 432.234C365.327 432.166 365.394 432.166 365.327 432.234C365.596 434.189 365.866 436.078 366.068 438.033C366.203 438.977 366.27 439.921 366.405 440.866C366.472 441.338 366.472 441.877 366.54 442.349C366.54 442.551 366.54 442.889 366.674 443.024C366.876 443.158 367.213 443.158 367.415 443.158C367.483 443.158 367.483 443.226 367.415 443.226" fill="#FFD4E4"/>
<path d="M365.327 432.234C365.327 432.166 365.394 432.166 365.327 432.234C365.596 434.189 365.866 436.078 366.068 438.033C366.203 438.977 366.27 439.921 366.405 440.866C366.472 441.338 366.472 441.877 366.54 442.349C366.54 442.551 366.54 442.889 366.674 443.024C366.876 443.158 367.213 443.158 367.415 443.158C367.483 443.158 367.483 443.226 367.415 443.226" stroke="#322242" stroke-miterlimit="10"/>
<path d="M337.033 484.564C337.033 484.564 338.515 480.451 339.323 479.642L337.033 484.564Z" fill="#FFD4E4"/>
<path d="M337.033 484.564C337.033 484.564 338.515 480.451 339.323 479.642" stroke="#322242" stroke-miterlimit="10"/>
<path d="M153.255 606.22C151.773 606.692 110.679 605.815 109.13 604.736C108.524 604.332 108.322 598.33 108.254 591.114C108.254 589.563 108.254 587.945 108.254 586.259C108.254 584.303 109.063 564.274 109.063 564.274L135.471 564.746L135.134 580.931L134.999 586.731L134.797 591.586C134.797 591.586 150.359 599.004 151.975 600.286C153.525 601.567 154.738 605.748 153.255 606.22Z" fill="#AD6359"/>
<path d="M153.255 606.22C151.773 606.692 110.679 605.816 109.13 604.737C108.524 604.332 108.322 598.33 108.254 591.114C108.254 589.563 108.254 587.945 108.254 586.259C108.254 584.303 108.389 582.348 108.456 580.392L135.134 580.864L134.999 586.664L134.797 591.519C134.797 591.519 150.359 598.937 151.975 600.218C153.525 601.567 154.738 605.748 153.255 606.22Z" fill="white"/>
<path d="M153.39 606.287C152.447 606.557 134.932 606.287 122.199 605.815C119.235 605.68 116.54 605.546 114.385 605.411C111.353 605.208 109.399 605.006 109.063 604.804C108.322 604.332 108.187 595.498 108.187 586.191L135.066 586.663L134.864 591.519C134.864 591.519 150.561 598.937 152.11 600.286C153.66 601.634 154.872 605.815 153.39 606.287Z" fill="white" stroke="#322242" stroke-miterlimit="10"/>
<path d="M152.851 604.601C145.912 604.264 117.955 603.657 111.084 603.86C111.016 603.86 111.016 603.927 111.084 603.927C117.955 604.399 145.912 604.804 152.851 604.736C152.986 604.736 152.986 604.601 152.851 604.601Z" fill="#263238"/>
<path d="M135.875 590.035C133.18 589.496 129.812 589.833 127.656 591.721C127.588 591.789 127.656 591.924 127.791 591.856C130.485 591.047 133.045 590.575 135.875 590.373C136.009 590.373 136.009 590.103 135.875 590.035Z" fill="#263238"/>
<path d="M137.761 591.249C135.066 590.71 131.698 591.047 129.542 592.935C129.475 593.003 129.542 593.138 129.677 593.07C132.371 592.261 134.931 591.789 137.761 591.586C137.963 591.586 137.963 591.317 137.761 591.249Z" fill="#263238"/>
<path d="M139.715 592.531C137.02 591.991 133.652 592.328 131.496 594.216C131.429 594.284 131.496 594.419 131.631 594.351C134.325 593.542 136.885 593.07 139.715 592.868C139.917 592.8 139.917 592.531 139.715 592.531Z" fill="#263238"/>
<path d="M141.668 593.744C138.974 593.205 135.605 593.542 133.45 595.43C133.382 595.498 133.45 595.633 133.584 595.565C136.279 594.756 138.839 594.284 141.668 594.082C141.87 594.082 141.87 593.744 141.668 593.744Z" fill="#263238"/>
<path d="M140.995 583.831C139.984 582.348 137.963 582.955 136.818 583.899C134.932 585.382 133.247 587.81 132.506 590.035C132.506 590.103 132.506 590.103 132.574 590.103C132.574 590.305 132.776 590.507 132.978 590.44C135.268 589.631 137.761 589.091 139.715 587.608C140.86 586.866 142.005 585.247 140.995 583.831ZM136.144 588.619C135.066 589.024 133.921 589.361 132.843 589.833C133.719 588.619 134.46 587.405 135.47 586.259C135.942 585.719 136.414 585.18 136.953 584.708C137.761 583.966 140.995 582.482 140.456 585.45C140.119 587.136 137.492 588.08 136.144 588.619Z" fill="#263238"/>
<path d="M125.567 589.159C127.791 590.17 130.351 590.17 132.776 590.44C133.045 590.44 133.18 590.238 133.113 590.035C133.18 590.035 133.18 589.968 133.18 589.901C131.9 587.878 129.812 585.854 127.656 584.775C126.309 584.101 124.22 583.966 123.546 585.652C122.805 587.271 124.22 588.619 125.567 589.159ZM124.355 587.203C123.21 584.371 126.645 585.18 127.656 585.72C128.262 586.057 128.868 586.461 129.407 586.933C130.62 587.81 131.631 588.822 132.708 589.833C131.563 589.631 130.351 589.496 129.205 589.361C127.858 589.091 125.029 588.754 124.355 587.203Z" fill="#263238"/>
<path opacity="0.1" d="M132.372 606.085C128.936 606.018 125.433 605.883 122.199 605.748C119.235 605.613 116.54 605.478 114.385 605.344C111.421 605.141 109.399 604.939 109.063 604.737C108.456 604.332 108.187 597.521 108.187 589.563C114.25 593.745 126.241 601.904 132.372 606.085Z" fill="black"/>
<path d="M135.066 586.731L108.187 586.192C108.187 586.192 109.938 522.397 109.602 520.778C108.793 516.934 90.0652 456.242 90.0652 456.242L114.183 456.646L120.38 456.781C120.38 456.781 119.639 466.897 119.976 467.976C124.018 482.677 133.247 507.831 134.864 517.204C137.626 533.389 135.066 586.731 135.066 586.731Z" fill="#322242"/>
<path d="M133.247 581.741C129.34 581.538 115.53 580.662 110.275 580.999C110.208 580.999 110.208 581.066 110.275 581.066C112.027 581.471 129.34 581.808 133.247 581.875C133.315 581.808 133.315 581.741 133.247 581.741Z" fill="#22182D"/>
<path d="M112.633 519.294C111.69 515.585 104.886 492.387 102.865 485.037C100.777 477.686 98.8229 470.336 97.0039 462.985C96.8018 462.041 96.5324 461.097 96.2629 460.153C96.2629 460.085 96.1282 460.085 96.1282 460.22C96.8018 463.929 97.745 467.638 98.6208 471.347C99.4965 475.056 100.44 478.698 101.383 482.339C103.336 489.69 105.492 496.973 107.85 504.256C108.995 507.898 110.949 515.248 111.959 518.957C112.97 522.599 111.286 577.762 111.353 578.706C111.353 578.976 111.757 578.976 111.757 578.706C112.027 571.625 113.576 523.003 112.633 519.294Z" fill="#22182D"/>
<path d="M114.183 456.714C114.183 456.714 108.254 521.116 108.187 520.846C107.446 517.137 91.0757 460.086 90.0652 456.511C90.0652 456.377 89.9978 456.309 89.9978 456.309L114.183 456.714Z" fill="#20172B"/>
<path d="M121.593 609.727C120.111 610.199 79.0169 609.322 77.4674 608.243C76.8611 607.838 76.659 601.837 76.5917 594.621C76.5917 593.07 78.3432 567.781 78.3432 567.781L104.414 568.253L103.067 595.093C103.067 595.093 118.629 602.511 120.246 603.792C121.862 605.141 123.008 609.255 121.593 609.727Z" fill="#AD6359"/>
<path d="M121.593 609.727C120.111 610.199 79.0169 609.322 77.4674 608.243C76.8611 607.839 76.659 601.837 76.5917 594.621C76.5917 593.07 77.198 585.855 77.2653 583.966L103.673 584.438L103.404 590.238L103.202 595.093C103.202 595.093 118.763 602.511 120.38 603.793C121.862 605.141 123.008 609.255 121.593 609.727Z" fill="white"/>
<path d="M121.728 609.794C120.785 610.064 103.269 609.794 90.5368 609.322C87.5726 609.187 84.8779 609.052 82.7222 608.918C79.6907 608.715 77.737 608.513 77.4002 608.311C76.6591 607.839 76.5244 599.004 76.5244 589.698L103.404 590.17L103.202 595.026C103.202 595.026 118.898 602.444 120.448 603.792C121.997 605.141 123.142 609.322 121.728 609.794Z" fill="white" stroke="#322242" stroke-miterlimit="10"/>
<path d="M121.189 608.108C114.25 607.771 86.2926 607.164 79.4211 607.367C79.3538 607.367 79.3538 607.434 79.4211 607.434C86.2926 607.906 114.25 608.311 121.189 608.243C121.323 608.243 121.323 608.108 121.189 608.108Z" fill="#263238"/>
<path d="M104.145 593.542C101.45 593.003 98.0818 593.34 95.9261 595.228C95.8587 595.296 95.9261 595.43 96.0608 595.363C98.7555 594.554 101.315 594.082 104.145 593.879C104.347 593.879 104.347 593.61 104.145 593.542Z" fill="#263238"/>
<path d="M106.098 594.823C103.404 594.284 100.035 594.621 97.8797 596.509C97.8123 596.577 97.8797 596.712 98.0144 596.644C100.709 595.835 103.269 595.363 106.098 595.161C106.301 595.161 106.301 594.823 106.098 594.823Z" fill="#263238"/>
<path d="M108.052 596.037C105.357 595.498 101.989 595.835 99.8333 597.723C99.7659 597.791 99.8333 597.926 99.968 597.858C102.663 597.049 105.223 596.577 108.052 596.375C108.187 596.375 108.254 596.037 108.052 596.037Z" fill="#263238"/>
<path d="M110.006 597.251C107.311 596.712 103.943 597.049 101.787 598.937C101.72 599.005 101.787 599.139 101.922 599.072C104.616 598.263 107.176 597.791 110.006 597.588C110.141 597.588 110.208 597.319 110.006 597.251Z" fill="#263238"/>
<path d="M109.332 587.338C108.322 585.854 106.301 586.461 105.155 587.405C103.269 588.889 101.585 591.317 100.844 593.542C100.844 593.61 100.844 593.61 100.911 593.61C100.911 593.812 101.113 594.014 101.315 593.947C103.606 593.137 106.098 592.598 108.052 591.114C109.197 590.373 110.343 588.754 109.332 587.338ZM104.482 592.126C103.404 592.531 102.259 592.868 101.181 593.34C102.056 592.126 102.798 590.912 103.808 589.766C104.28 589.226 104.751 588.687 105.29 588.215C106.098 587.473 109.332 585.989 108.793 588.956C108.456 590.71 105.762 591.654 104.482 592.126Z" fill="#263238"/>
<path d="M93.8377 592.733C96.0608 593.745 98.6207 593.745 101.046 594.014C101.315 594.014 101.45 593.812 101.383 593.61C101.45 593.61 101.45 593.542 101.45 593.475C100.17 591.452 98.0818 589.429 95.926 588.35C94.5787 587.675 92.4903 587.54 91.8167 589.226C91.0756 590.845 92.5577 592.126 93.8377 592.733ZM92.6924 590.777C91.5472 587.945 94.9829 588.754 95.9934 589.294C96.5997 589.631 97.206 590.036 97.745 590.508C98.9576 591.384 99.9681 592.396 101.046 593.407C99.9007 593.205 98.6881 593.07 97.5429 592.935C96.1281 592.666 93.2987 592.261 92.6924 590.777Z" fill="#263238"/>
<path d="M103.336 590.305L76.5917 589.833C76.5917 589.833 78.7474 558.273 80.499 529.14C81.9137 505.605 83.0589 483.688 82.5873 481.126C80.9032 471.82 82.3179 461.232 86.7641 456.242L115.665 456.781C115.665 456.781 116.069 464.941 113.037 469.729C113.037 469.729 110.275 471.415 108.995 472.157C108.995 472.157 108.524 515.856 107.85 530.422C107.109 545.325 103.336 590.305 103.336 590.305Z" fill="#322242"/>
<path d="M101.922 585.045C98.0818 584.843 99.1596 584.843 95.3197 584.708C93.4334 584.641 81.1053 584.169 79.2864 584.573C79.219 584.573 79.219 584.641 79.2864 584.708C81.0379 585.18 93.3661 585.315 95.2524 585.315C99.0923 585.382 98.0144 585.315 101.854 585.248C101.989 585.248 102.056 585.045 101.922 585.045Z" fill="#22182D"/>
<path d="M114.856 468.38C111.959 469.661 109.265 471.347 106.637 473.033C106.503 473.101 106.637 473.236 106.705 473.168C109.467 471.685 112.296 470.268 114.991 468.65C115.26 468.582 115.058 468.245 114.856 468.38Z" fill="#22182D"/>
<path d="M111.151 467.908C110.949 468.448 110.814 469.054 110.747 469.594C110.679 470.066 110.545 470.538 110.612 470.943C110.612 471.01 110.747 471.01 110.814 470.943C111.084 470.538 111.151 469.999 111.286 469.594C111.42 469.054 111.622 468.515 111.757 467.975C111.825 467.706 111.286 467.571 111.151 467.908Z" fill="#22182D"/>
<path d="M110.949 465.076C111.016 464.604 111.151 464.132 111.218 463.66C111.286 463.188 111.42 462.648 111.488 462.176C111.488 462.109 111.623 462.109 111.623 462.176C111.555 462.648 111.488 463.188 111.488 463.66C111.42 464.132 111.353 464.604 111.353 465.143C111.218 466.02 111.084 466.964 110.882 467.841C111.353 467.706 111.825 467.638 112.229 467.301C112.633 466.964 112.835 466.425 112.97 465.953C113.105 465.413 113.239 464.874 113.441 464.267C113.644 463.66 113.846 463.053 113.913 462.446C113.913 462.378 114.048 462.378 114.048 462.446C113.846 463.727 113.711 465.076 113.239 466.357C113.037 466.829 112.97 467.369 112.498 467.638C112.027 467.908 111.42 468.043 110.882 468.11C110.814 468.11 110.747 468.11 110.747 468.043C110.679 467.031 110.814 466.02 110.949 465.076Z" fill="#22182D"/>
<path d="M87.2356 480.788C87.1009 478.63 86.7641 476.54 86.562 474.382C86.1578 470.133 86.562 465.818 87.5725 461.636C87.5725 461.569 87.4377 461.502 87.4377 461.636C86.6967 465.345 85.9557 468.987 86.0904 472.763C86.2251 476.54 86.8314 480.249 86.7641 483.958C86.7641 487.734 86.3599 491.578 86.0904 495.355C85.7536 499.199 85.4841 502.975 85.1473 506.819C83.8673 522.127 80.2968 576.616 80.0947 580.999C80.0947 581.404 80.6337 581.336 80.701 580.999C81.5094 573.311 85.1473 517.474 85.6862 509.854C85.9557 506.01 86.2925 502.233 86.562 498.389C86.8314 494.613 87.2356 490.769 87.303 486.993C87.4377 484.969 87.4377 482.879 87.2356 480.788Z" fill="#22182D"/>
<path d="M97.8797 461.637C97.8797 461.569 97.8123 461.569 97.7449 461.637C97.4754 462.041 97.5428 462.715 97.4755 463.188C97.3407 463.727 97.2733 464.334 97.0712 464.873C96.667 465.952 96.1955 466.964 95.2523 467.773C93.4334 469.459 90.9408 469.999 88.583 470.538C88.5156 470.538 88.5156 470.673 88.583 470.673C89.9303 470.808 91.345 470.538 92.6924 470.134C93.8376 469.796 94.9829 469.257 95.8586 468.448C96.7344 467.638 97.3407 466.559 97.6102 465.413C97.7449 464.806 97.8123 464.132 97.8123 463.525C97.8123 463.255 97.8123 462.918 97.8123 462.648C97.8797 462.243 97.947 461.906 97.8797 461.637Z" fill="#22182D"/>
<path d="M113.105 428.862C115.732 436.752 125.096 462.176 133.113 464.401C138.3 465.885 159.318 467.638 164.304 463.862C166.257 462.378 164.708 444.845 161.811 445.317C158.914 445.789 141.668 447.003 139.58 446.261C137.492 445.519 122.806 426.367 117.214 421.512C107.513 413.082 111.69 424.614 113.105 428.862Z" fill="#AD6359"/>
<path d="M129.812 433.65L118.022 446.665C118.022 446.665 111.353 428.525 110.949 422.658C110.41 416.049 113.913 417.196 118.763 421.309C123.547 425.355 129.812 433.65 129.812 433.65Z" fill="white" stroke="#322242" stroke-miterlimit="10"/>
<path d="M127.319 431.964C126.848 432.369 123.142 436.348 122.334 437.292C121.526 438.168 118.292 441.81 117.551 442.754C117.551 442.822 117.551 442.822 117.618 442.822C118.494 442.012 121.795 438.371 122.603 437.494C123.479 436.55 127.05 432.504 127.319 431.964C127.386 431.964 127.319 431.964 127.319 431.964Z" fill="white"/>
<path d="M127.319 431.964C126.848 432.369 123.142 436.348 122.334 437.292C121.526 438.168 118.292 441.81 117.551 442.754C117.551 442.822 117.551 442.822 117.618 442.822C118.494 442.012 121.795 438.371 122.603 437.494C123.479 436.55 127.05 432.504 127.319 431.964ZM127.319 431.964C127.386 431.964 127.319 431.964 127.319 431.964Z" stroke="#322242" stroke-miterlimit="10"/>
<path opacity="0.1" d="M128.195 435.471L118.09 446.665C118.09 446.665 111.421 428.525 111.017 422.658C110.68 418.544 111.96 417.398 114.115 418.207C117.282 422.119 123.547 429.739 128.195 435.471Z" fill="white" stroke="#322242" stroke-miterlimit="10"/>
<path d="M120.919 441.608L122.469 459.411C122.469 459.411 91.143 457.725 83.3958 456.713C83.3958 456.713 93.2313 426.097 102.124 418.275C106.57 414.363 111.488 415.038 114.385 418.14C115.126 418.949 122.603 429.132 123.277 433.583C123.951 437.561 120.919 441.608 120.919 441.608Z" fill="white" stroke="#322242" stroke-miterlimit="10"/>
<path d="M122.469 459.478L120.919 441.675C120.919 441.675 123.951 437.629 123.344 433.718C122.671 429.267 115.193 419.084 114.452 418.275C114.183 418.005 113.846 417.668 113.576 417.465L114.721 429.739L105.762 416.251C104.953 416.521 103.875 416.993 102.259 418.409C93.2987 426.165 83.5305 456.848 83.5305 456.848C91.143 457.792 122.469 459.478 122.469 459.478Z" fill="white" stroke="#322242" stroke-miterlimit="10"/>
<path d="M86.2251 447.272L121.593 449.835L121.323 447.002L87.0335 444.507C86.8314 445.519 86.4946 446.396 86.2251 447.272Z" fill="white" stroke="#322242" stroke-miterlimit="10"/>
<path d="M84.743 452.128L122.064 454.825L121.795 451.993L85.5514 449.363C85.282 450.374 84.9451 451.318 84.743 452.128Z" fill="white" stroke="#322242" stroke-miterlimit="10"/>
<path d="M106.166 441.405C106.57 441.405 106.974 441.271 107.378 441.203C108.254 441.001 109.13 440.799 109.938 440.596" fill="white"/>
<path d="M106.166 441.405C106.57 441.405 106.974 441.271 107.378 441.203C108.254 441.001 109.13 440.799 109.938 440.596" stroke="#322242" stroke-miterlimit="10"/>
<path d="M119.437 441.203C118.022 441.001 116.54 440.866 115.126 440.866C114.385 440.866 113.711 440.866 112.97 440.933C112.633 440.933 112.296 441.001 111.959 441.001C111.555 441.068 111.218 441.135 110.814 441.135C110.747 441.135 110.747 441.203 110.814 441.203C111.151 441.203 111.555 441.203 111.892 441.203C112.229 441.203 112.633 441.203 112.97 441.203C113.711 441.203 114.385 441.203 115.126 441.203C116.54 441.203 118.022 441.203 119.437 441.27C119.572 441.338 119.572 441.203 119.437 441.203Z" fill="white" stroke="#322242" stroke-miterlimit="10"/>
<path d="M100.709 418.477C87.7073 427.176 64.2636 447.812 67.1603 454.083C69.6529 459.546 87.5052 448.149 87.6399 447.272C87.7073 446.598 96.8018 435.606 102.326 425.962C108.389 415.173 103.943 416.319 100.709 418.477Z" fill="#FFD4E4" stroke="#322242" stroke-miterlimit="10"/>
<path d="M96.2628 439.112L80.2295 431.964C80.2295 431.964 95.3871 420.028 100.844 417.803C106.974 415.24 106.907 418.949 104.549 424.816C102.191 430.615 96.2628 439.112 96.2628 439.112Z" fill="white" stroke="#322242" stroke-miterlimit="10"/>
<path d="M97.0713 436.213C96.5324 435.876 91.6146 433.583 90.4694 433.111C89.3915 432.639 84.9453 430.683 83.8 430.278C83.7327 430.278 83.7327 430.346 83.7327 430.346C84.8105 430.953 89.2568 432.976 90.402 433.448C91.4799 433.92 96.465 436.078 97.0713 436.28C97.0713 436.348 97.0713 436.28 97.0713 436.213Z" fill="#FFD4E4" stroke="#322242" stroke-miterlimit="10"/>
<path d="M111.151 406.001C110.949 404.248 105.896 397.572 99.3617 401.483C92.9619 405.327 96.3976 416.454 104.145 415.308C109.399 414.633 111.555 409.778 111.151 406.001Z" fill="#322242"/>
<path d="M108.322 416.521C108.322 417.196 110.275 422.186 113.239 422.86C114.183 423.063 115.597 417.803 115.597 417.803L115.799 417.465L118.427 412.34L113.105 406.473L112.364 405.731C112.364 405.731 111.757 407.148 110.949 408.968C110.882 409.036 110.882 409.103 110.814 409.238C110.747 409.373 110.747 409.44 110.68 409.508C110.545 409.778 110.41 410.047 110.343 410.317C110.275 410.519 110.141 410.722 110.073 410.924C110.006 411.126 109.871 411.396 109.804 411.598C108.995 413.891 108.322 416.184 108.322 416.521Z" fill="#FFD4E4" stroke="#322242" stroke-miterlimit="10"/>
<path d="M118.427 412.273L115.867 417.196C112.296 414.768 111.084 411.329 110.68 409.44L110.882 408.901C111.69 407.148 112.364 405.731 112.364 405.731L113.172 406.541L118.427 412.273Z" fill="#FFD4E4" stroke="#322242" stroke-miterlimit="10"/>
<path d="M127.656 405.462C126.174 415.442 119.976 415.712 117.82 415.375C115.867 415.105 109.265 413.824 109.669 403.708C110.14 393.593 115.26 391.098 119.774 391.57C124.288 391.974 129.138 395.414 127.656 405.462Z" fill="#FFD4E4" stroke="#322242" stroke-miterlimit="10"/>
<path d="M125.972 403.102C125.77 403.034 125.567 402.899 125.298 402.832C125.029 402.697 124.826 402.63 124.692 402.427C124.624 402.292 124.692 402.09 124.759 402.023C125.029 401.82 125.365 401.888 125.635 402.023C125.972 402.158 126.174 402.36 126.376 402.63C126.578 402.832 126.309 403.169 125.972 403.102Z" fill="#322242"/>
<path d="M119.302 402.157C119.572 402.157 119.774 402.157 119.976 402.157C120.246 402.157 120.448 402.157 120.717 402.023C120.852 401.955 120.852 401.753 120.785 401.618C120.65 401.348 120.313 401.213 119.976 401.213C119.639 401.213 119.37 401.281 119.1 401.483C118.831 401.685 118.966 402.09 119.302 402.157Z" fill="#322242"/>
<path d="M120.313 404.383C120.313 404.316 120.246 404.383 120.313 404.383C120.178 405.125 119.909 405.867 119.235 406.001V406.069C119.976 406.069 120.313 405.057 120.313 404.383Z" fill="#322242"/>
<path d="M119.774 403.574C118.696 403.304 118.225 405.462 119.235 405.732C120.246 405.934 120.717 403.776 119.774 403.574Z" fill="#322242"/>
<path d="M119.37 403.574C119.168 403.641 118.898 403.843 118.696 403.776C118.427 403.776 118.292 403.439 118.157 403.236H118.09C118.022 403.641 118.022 404.113 118.494 404.248C118.898 404.383 119.235 404.113 119.437 403.708C119.504 403.641 119.437 403.574 119.37 403.574Z" fill="#322242"/>
<path d="M124.287 404.99L124.355 405.057C124.22 405.732 124.085 406.541 124.692 406.878V406.945C123.883 406.676 124.018 405.597 124.287 404.99Z" fill="#322242"/>
<path d="M125.029 404.45C126.107 404.585 125.77 406.811 124.759 406.676C123.749 406.473 124.086 404.316 125.029 404.45Z" fill="#322242"/>
<path d="M125.433 404.653C125.567 404.788 125.702 405.057 125.904 405.057C126.174 405.125 126.376 404.922 126.578 404.72C126.578 404.72 126.645 404.72 126.578 404.72C126.51 405.125 126.308 405.529 125.904 405.597C125.5 405.597 125.298 405.192 125.298 404.788C125.298 404.72 125.365 404.585 125.433 404.653Z" fill="#322242"/>
<path d="M119.1 409.98C119.235 410.182 119.302 410.452 119.572 410.519C119.774 410.587 120.111 410.587 120.313 410.519C120.313 410.519 120.38 410.519 120.313 410.587C120.043 410.789 119.639 410.857 119.37 410.722C119.1 410.587 119.033 410.317 119.033 409.98C119.033 409.98 119.1 409.98 119.1 409.98Z" fill="#322242"/>
<path d="M120.043 408.092C120.313 408.699 120.852 409.103 121.458 409.305C121.728 409.373 121.997 409.44 122.267 409.44C122.334 409.44 122.401 409.44 122.401 409.44C122.469 409.44 122.469 409.44 122.536 409.44C122.603 409.44 122.671 409.373 122.671 409.305V409.238V409.171C122.738 408.631 122.805 407.889 122.805 407.889C123.008 408.024 123.883 408.564 123.883 408.294C124.018 406.069 124.22 403.573 123.951 401.281C123.951 401.213 123.816 401.213 123.816 401.281C123.547 403.439 123.681 405.596 123.479 407.754C123.21 407.62 122.738 407.282 122.469 407.282C122.401 407.282 122.401 408.833 122.334 409.036C121.458 409.036 120.852 408.699 120.111 407.957C120.111 408.024 120.043 408.024 120.043 408.092Z" fill="#322242"/>
<path d="M122.132 409.373C122.132 409.373 121.526 409.912 120.852 410.047C120.582 410.115 120.313 410.115 120.043 409.98C119.505 409.71 119.572 409.238 119.774 408.833C119.909 408.496 120.111 408.227 120.111 408.227C120.111 408.227 120.852 409.036 122.132 409.373Z" fill="#322242"/>
<path d="M120.852 410.047C120.582 410.115 120.313 410.115 120.043 409.98C119.505 409.71 119.572 409.238 119.774 408.833C120.38 408.968 120.919 409.44 120.852 410.047Z" fill="#322242"/>
<path d="M110.343 404.45C112.431 404.787 113.778 399.999 113.778 399.999C113.778 399.999 117.012 399.864 118.831 397.639C118.831 397.639 117.484 399.595 116.001 400.202C115.732 400.336 123.075 400.808 124.692 395.279C124.692 395.279 124.827 401.011 127.925 402.629C128.06 402.697 128.262 397.504 127.386 396.155C126.511 394.807 125.635 393.997 125.635 393.997C125.635 393.997 122.94 390.963 118.427 390.895C113.913 390.828 110.208 395.009 109.534 396.897C108.322 400.606 109.399 404.315 110.343 404.45Z" fill="#FFD4E4" stroke="#322242" stroke-miterlimit="10"/>
<path d="M116.271 400.404C120.246 400.876 123.749 398.853 124.759 394.874C124.759 394.807 124.961 394.807 124.961 394.874C124.759 399.123 119.909 401.416 116.271 400.404C116.136 400.472 116.136 400.404 116.271 400.404Z" fill="#FFD4E4"/>
<path d="M116.271 400.404C120.246 400.876 123.749 398.853 124.759 394.874C124.759 394.807 124.961 394.807 124.961 394.874C124.759 399.123 119.909 401.416 116.271 400.404ZM116.271 400.404C116.136 400.472 116.136 400.404 116.271 400.404Z" stroke="#322242" stroke-miterlimit="10"/>
<path d="M110.41 404.248C112.7 403.506 113.442 401.416 113.913 399.19C113.913 399.123 114.048 399.123 114.048 399.19C113.711 401.348 112.903 403.911 110.477 404.383C110.343 404.45 110.275 404.248 110.41 404.248Z" fill="#FFD4E4" stroke="#322242" stroke-miterlimit="10"/>
<path d="M124.894 394.537C124.894 394.469 124.894 394.469 124.894 394.537C125.029 396.897 124.49 400.741 127.319 401.82C127.386 401.82 127.386 401.955 127.252 401.955C124.49 401.146 124.22 396.83 124.894 394.537Z" fill="#FFD4E4" stroke="#322242" stroke-miterlimit="10"/>
<path d="M118.225 407.62C116.945 407.215 116.001 406.001 116.069 404.585C116.136 402.899 117.551 401.618 119.235 401.685C120.919 401.753 122.199 403.169 122.132 404.855C122.064 406.541 120.65 407.822 118.966 407.754C118.764 407.754 118.494 407.754 118.225 407.62ZM119.909 402.225C119.707 402.157 119.505 402.157 119.235 402.09C117.82 402.022 116.54 403.169 116.473 404.585C116.406 406.001 117.551 407.282 118.966 407.35C120.38 407.417 121.66 406.271 121.728 404.855C121.795 403.641 120.987 402.562 119.909 402.225Z" fill="#FFD4E4" stroke="#322242" stroke-miterlimit="10"/>
<path d="M125.096 408.833C124.018 408.496 123.344 407.08 123.614 405.529C123.749 404.72 124.085 404.045 124.624 403.573C125.163 403.034 125.77 402.831 126.376 402.966C126.982 403.101 127.521 403.506 127.791 404.113C128.127 404.72 128.195 405.529 128.06 406.338C127.791 407.957 126.511 409.17 125.298 408.968C125.231 408.833 125.163 408.833 125.096 408.833ZM126.443 403.303C126.376 403.303 126.376 403.303 126.309 403.236C125.837 403.169 125.365 403.303 124.894 403.775C124.422 404.18 124.153 404.854 124.018 405.529C123.749 406.945 124.355 408.294 125.365 408.429C126.376 408.631 127.386 407.619 127.656 406.136C127.791 405.461 127.723 404.72 127.454 404.18C127.184 403.775 126.847 403.438 126.443 403.303Z" fill="#FFD4E4" stroke="#322242" stroke-miterlimit="10"/>
<path d="M121.997 405.192L121.795 404.854C122.334 404.585 123.479 404.248 124.018 405.124L123.681 405.327C123.143 404.517 122.065 405.192 121.997 405.192Z" fill="#FFD4E4" stroke="#322242" stroke-miterlimit="10"/>
<path d="M109.13 403.843L108.793 403.573C108.928 403.439 109.938 402.09 110.882 402.09C111.757 402.09 116.406 403.304 116.675 403.371L116.54 403.776C115.058 403.371 111.555 402.494 110.882 402.494C110.275 402.562 109.4 403.506 109.13 403.843Z" fill="#FFD4E4" stroke="#322242" stroke-miterlimit="10"/>
<path d="M111.151 404.72C111.151 404.72 109.736 401.146 108.187 401.55C106.637 401.955 107.176 406.811 108.658 407.822C110.141 408.834 111.084 407.485 111.084 407.485L111.151 404.72Z" fill="#FFD4E4" stroke="#322242" stroke-miterlimit="10"/>
<path d="M108.389 402.899C108.389 402.899 108.322 402.967 108.389 402.899C109.399 403.709 109.736 404.923 109.938 406.069C109.669 405.529 109.265 405.192 108.658 405.462C108.591 405.462 108.658 405.529 108.658 405.529C109.13 405.529 109.467 405.732 109.669 406.136C109.804 406.474 109.871 406.811 110.006 407.148C110.006 407.283 110.208 407.283 110.208 407.148C110.545 405.732 109.938 403.439 108.389 402.899Z" fill="#322242"/>
<path d="M109.399 407.957C109.66 407.957 109.871 407.745 109.871 407.485C109.871 407.224 109.66 407.013 109.399 407.013C109.139 407.013 108.928 407.224 108.928 407.485C108.928 407.745 109.139 407.957 109.399 407.957Z" fill="#FFD4E4" stroke="#322242" stroke-miterlimit="10"/>
<path d="M128.801 399.393C128.801 399.393 129.408 387.861 119.1 387.254C108.861 386.647 108.052 398.179 108.052 398.179L128.801 399.393Z" fill="#FFC727" stroke="#2A2A2A" stroke-miterlimit="10"/>
<path d="M107.271 398.917L129.53 400.263L129.627 398.648L107.369 397.301L107.271 398.917Z" fill="#FFC727" stroke="#2A2A2A" stroke-miterlimit="10"/>
<path d="M118.629 397.976L123.277 398.246L122.873 386.849L118.225 386.58L118.629 397.976Z" fill="#FFC727" stroke="#2A2A2A" stroke-miterlimit="10"/>
<path opacity="0.1" d="M118.629 397.976L123.277 398.246L122.873 386.849L118.225 386.58L118.629 397.976Z" fill="black" stroke="#2A2A2A" stroke-miterlimit="10"/>
<path d="M148.472 474.584L159.992 451.588L170.771 430.75L157.904 430.278L141.466 434.864L125.365 429.739L111.151 430.278L96.9365 474.651L110.14 474.449L125.298 478.091L138.704 474.449L148.472 474.584Z" fill="#EBEBEB" stroke="#322242" stroke-miterlimit="10"/>
<path d="M138.704 474.449L157.904 430.278L141.466 434.864L125.298 478.091L138.704 474.449Z" fill="#DBDBDB" stroke="#322242" stroke-miterlimit="10"/>
<path d="M110.14 474.449L125.365 429.739L111.151 430.278L96.9365 474.651L110.14 474.449Z" fill="#DBDBDB" stroke="#322242" stroke-miterlimit="10"/>
<path d="M164.708 445.114C165.382 447.744 167.672 451.318 167.537 453.341C167.403 455.162 165.786 455.499 165.786 455.499C165.786 455.499 167.537 456.848 167.133 458.669C166.931 459.613 165.247 460.085 165.247 460.085C165.247 460.085 166.662 461.232 166.123 462.85C165.718 464.131 164.102 464.401 164.102 464.401C164.102 464.401 164.91 466.154 164.102 467.301C162.485 469.661 151.302 467.503 150.359 463.052C149.955 460.962 152.649 461.636 152.649 461.636C152.649 461.636 149.011 459.748 149.416 457.388C149.82 455.095 153.256 456.174 153.256 456.174C153.256 456.174 149.752 454.286 150.359 451.925C151.032 449.498 154.266 451.116 154.266 451.116C154.266 451.116 152.11 448.958 152.986 447.272C154.468 444.44 158.443 449.093 161.003 449.026L163.159 445.249L164.708 445.114Z" fill="#FFD4E4" stroke="#322242" stroke-miterlimit="10"/>
<path d="M166.257 449.026C165.853 446.463 169.356 444.103 169.289 441.54C169.222 438.168 164.91 440.663 163.226 445.182L162.485 448.958L166.257 449.026Z" fill="#FFD4E4" stroke="#322242" stroke-miterlimit="10"/>
<path d="M163.9 464.469C163.9 464.469 163.967 464.536 163.9 464.469C160.06 464.738 155.748 463.727 152.515 461.636C152.38 461.569 152.447 461.367 152.582 461.434C156.355 462.918 159.858 463.997 163.9 464.469Z" fill="#FFD4E4" stroke="#322242" stroke-miterlimit="10"/>
<path d="M165.314 460.085C165.382 460.085 165.382 460.153 165.314 460.153C161.34 460.355 156.557 459.074 153.121 456.174C152.986 456.107 152.986 455.837 153.121 455.972C155.546 457.793 161.676 459.748 165.314 460.085Z" fill="#FFD4E4" stroke="#322242" stroke-miterlimit="10"/>
<path d="M154.131 450.847C157.567 453.477 161.474 454.758 165.651 455.5C165.718 455.5 165.718 455.567 165.651 455.567C163.495 455.769 160.868 455.028 158.847 454.286C156.961 453.544 155.344 452.532 153.997 450.981C153.997 450.914 154.064 450.779 154.131 450.847Z" fill="#FFD4E4" stroke="#322242" stroke-miterlimit="10"/>
<path d="M67.2277 454.421C70.1919 457.658 74.5707 459.748 90.402 461.029C92.8272 461.232 97.0713 443.833 94.5114 443.563C91.2777 443.226 81.3074 441.945 80.3643 442.012C72.6171 442.552 65.2067 452.263 67.2277 454.421Z" fill="#FFD4E4" stroke="#322242" stroke-miterlimit="10"/>
<path d="M90.402 461.03C91.9514 461.502 99.6313 464.604 102.393 464.806C105.155 465.008 109.534 465.345 111.218 462.985C112.229 461.636 111.959 459.951 111.959 459.951C111.959 459.951 114.452 458.602 114.452 456.983C114.452 455.432 113.509 454.151 113.509 454.151C113.509 454.151 116.069 453.207 115.934 451.454C115.799 449.97 114.654 448.958 114.654 448.958C114.654 448.958 116.338 447.879 115.799 445.991C115.193 443.901 110.073 441.743 107.378 441.136L94.5787 443.563" fill="#FFD4E4"/>
<path d="M90.402 461.03C91.9514 461.502 99.6313 464.604 102.393 464.806C105.155 465.008 109.534 465.345 111.218 462.985C112.229 461.636 111.959 459.951 111.959 459.951C111.959 459.951 114.452 458.602 114.452 456.983C114.452 455.432 113.509 454.151 113.509 454.151C113.509 454.151 116.069 453.207 115.934 451.454C115.799 449.97 114.654 448.958 114.654 448.958C114.654 448.958 116.338 447.879 115.799 445.991C115.193 443.901 110.073 441.743 107.378 441.136L94.5787 443.563" stroke="#322242" stroke-miterlimit="10"/>
<path d="M114.519 448.689C111.757 447.408 108.793 447.003 105.829 446.396C105.762 446.396 105.762 446.463 105.829 446.531C108.793 447.07 111.555 448.217 114.452 448.891C114.519 448.891 114.587 448.756 114.519 448.689Z" fill="#FFD4E4" stroke="#322242" stroke-miterlimit="10"/>
<path d="M113.441 453.949C112.835 453.679 112.094 453.611 111.42 453.477C110.679 453.342 109.938 453.274 109.265 453.207C107.783 453.072 106.368 452.937 104.886 452.802C104.818 452.802 104.818 452.87 104.886 452.937C106.368 453.072 107.783 453.274 109.265 453.544C110.006 453.679 110.679 453.746 111.42 453.881C112.094 454.016 112.768 454.151 113.441 454.151C113.509 454.151 113.509 453.949 113.441 453.949Z" fill="#FFD4E4" stroke="#322242" stroke-miterlimit="10"/>
<path d="M111.892 459.95C111.353 459.681 110.612 459.681 110.073 459.681C109.399 459.613 108.726 459.546 108.052 459.478C106.705 459.344 105.425 459.209 104.078 459.006C104.01 459.006 104.01 459.074 104.078 459.141C105.425 459.344 106.772 459.546 108.12 459.748C108.793 459.816 109.467 459.95 110.073 460.018C110.612 460.018 111.286 460.22 111.892 459.95C111.892 460.018 111.892 460.018 111.892 459.95Z" fill="#FFD4E4"/>
<path d="M111.892 459.95C111.353 459.681 110.612 459.681 110.073 459.681C109.399 459.613 108.726 459.546 108.052 459.478C106.705 459.344 105.425 459.209 104.078 459.006C104.01 459.006 104.01 459.074 104.078 459.141C105.425 459.344 106.772 459.546 108.12 459.748C108.793 459.816 109.467 459.95 110.073 460.018C110.612 460.018 111.286 460.22 111.892 459.95ZM111.892 459.95C111.892 460.018 111.892 460.018 111.892 459.95Z" stroke="#322242" stroke-miterlimit="10"/>
<path d="M74.975 443.766C76.1202 442.957 77.4676 442.417 78.8823 442.08C80.297 441.743 81.7117 441.743 83.1264 441.81C84.5411 441.878 85.9558 442.08 87.3031 442.282C88.7178 442.552 90.0652 442.822 91.4125 443.159C89.9978 443.024 88.5831 442.822 87.2358 442.687C85.8211 442.485 84.4737 442.35 83.059 442.215C81.6443 442.08 80.297 442.08 78.8823 442.282C77.5349 442.619 76.1876 443.024 74.975 443.766Z" fill="#263238"/>
</g>
<defs>
<clipPath id="clip0">
<rect width="400" height="27.7241" fill="white" transform="translate(60 605.151)"/>
</clipPath>
<clipPath id="clip1">
<rect width="374.898" height="237.916" fill="white" transform="translate(66.5541 386.242)"/>
</clipPath>
</defs>
</svg>
